<svg xmlns="http://www.w3.org/2000/svg" shape-rendering="geometricPrecision" text-rendering="geometricPrecision" viewBox="0 0 300 270" style="white-space: pre;"><g id="Grupo_37966" data-name="Grupo 37966" display="none" transform="translate(-308.54,-260.589)"><g id="Grupo_37964" data-name="Grupo 37964" opacity="0" transform="translate(2429.56,2080.13)"><g transform="translate(-2048.58,-1708.54) translate(-23.6187,-23.5171)"><path id="Trazado_38525" data-name="Trazado 38525" d="M-2055.02,-1704.5C-2054.23,-1704.45,-2053.43,-1704.35,-2052.65,-1704.22C-2051.86,-1704.08,-2051.09,-1703.91,-2050.32,-1703.69C-2049.55,-1703.48,-2048.8,-1703.22,-2048.06,-1702.93C-2047.32,-1702.63,-2046.59,-1702.3,-2045.89,-1701.93C-2045.03,-1701.45,-2044.21,-1700.91,-2043.43,-1700.32C-2042.65,-1699.73,-2041.9,-1699.09,-2041.21,-1698.4C-2040.51,-1697.72,-2039.86,-1696.98,-2039.25,-1696.21C-2038.65,-1695.43,-2038.1,-1694.62,-2037.61,-1693.78C-2036.82,-1692.45,-2035.98,-1691.15,-2035.26,-1689.79C-2034.79,-1688.91,-2034.4,-1687.99,-2034.1,-1687.04C-2033.8,-1686.09,-2033.59,-1685.11,-2033.47,-1684.12C-2033.35,-1683.13,-2033.32,-1682.13,-2033.38,-1681.14C-2033.44,-1680.14,-2033.6,-1679.15,-2033.84,-1678.19C-2034.09,-1677.04,-2034.4,-1675.91,-2034.77,-1674.79C-2035.15,-1673.68,-2035.58,-1672.59,-2036.08,-1671.53C-2036.57,-1670.46,-2037.13,-1669.43,-2037.74,-1668.42C-2038.35,-1667.42,-2039.02,-1666.45,-2039.74,-1665.53C-2040.25,-1664.88,-2040.8,-1664.27,-2041.4,-1663.71C-2042,-1663.15,-2042.64,-1662.63,-2043.32,-1662.17C-2044,-1661.71,-2044.71,-1661.3,-2045.46,-1660.95C-2046.2,-1660.6,-2046.97,-1660.31,-2047.76,-1660.08C-2051.09,-1659.12,-2054.48,-1658.34,-2057.86,-1657.58C-2058.06,-1657.53,-2058.26,-1657.5,-2058.47,-1657.48C-2058.67,-1657.47,-2058.88,-1657.46,-2059.09,-1657.47C-2059.29,-1657.48,-2059.5,-1657.5,-2059.7,-1657.54C-2059.9,-1657.57,-2060.1,-1657.62,-2060.3,-1657.68C-2062.81,-1658.47,-2065.28,-1659.39,-2067.77,-1660.28C-2067.86,-1660.32,-2067.95,-1660.35,-2068.04,-1660.39C-2068.13,-1660.43,-2068.21,-1660.47,-2068.3,-1660.51C-2068.39,-1660.56,-2068.47,-1660.6,-2068.55,-1660.65C-2068.64,-1660.7,-2068.72,-1660.75,-2068.8,-1660.81C-2069.78,-1661.45,-2070.72,-1662.16,-2071.62,-1662.92C-2072.52,-1663.68,-2073.37,-1664.49,-2074.16,-1665.35C-2074.96,-1666.21,-2075.71,-1667.12,-2076.4,-1668.07C-2077.08,-1669.02,-2077.71,-1670.02,-2078.28,-1671.05C-2078.82,-1672.02,-2079.26,-1673.04,-2079.61,-1674.09C-2079.97,-1675.14,-2080.22,-1676.22,-2080.39,-1677.32C-2080.55,-1678.41,-2080.61,-1679.52,-2080.58,-1680.63C-2080.54,-1681.74,-2080.41,-1682.84,-2080.18,-1683.93C-2080.03,-1684.75,-2079.83,-1685.56,-2079.57,-1686.36C-2079.32,-1687.15,-2079.01,-1687.93,-2078.65,-1688.69C-2078.3,-1689.44,-2077.89,-1690.17,-2077.44,-1690.87C-2076.98,-1691.58,-2076.48,-1692.25,-2075.94,-1692.88C-2074.52,-1694.55,-2073.13,-1696.24,-2071.64,-1697.84C-2070.95,-1698.59,-2070.21,-1699.28,-2069.41,-1699.91C-2068.62,-1700.54,-2067.77,-1701.11,-2066.89,-1701.6C-2066,-1702.1,-2065.08,-1702.53,-2064.13,-1702.88C-2063.18,-1703.24,-2062.2,-1703.52,-2061.21,-1703.72C-2059.15,-1704.16,-2057.02,-1704.26,-2055.02,-1704.5ZM-2046.29,-1663.47C-2045.91,-1663.7,-2045.54,-1663.94,-2045.18,-1664.19C-2044.82,-1664.44,-2044.47,-1664.7,-2044.12,-1664.97C-2043.78,-1665.25,-2043.45,-1665.54,-2043.12,-1665.83C-2042.8,-1666.13,-2042.49,-1666.44,-2042.19,-1666.76C-2041.32,-1667.84,-2040.53,-1668.98,-2039.83,-1670.17C-2039.12,-1671.36,-2038.5,-1672.59,-2037.97,-1673.87C-2037.44,-1675.15,-2037,-1676.46,-2036.66,-1677.8C-2036.31,-1679.14,-2036.07,-1680.51,-2035.92,-1681.88C-2035.9,-1681.99,-2035.88,-1682.1,-2035.87,-1682.22C-2035.86,-1682.33,-2035.86,-1682.44,-2035.86,-1682.55C-2035.86,-1682.67,-2035.87,-1682.78,-2035.89,-1682.89C-2035.9,-1683,-2035.92,-1683.11,-2035.94,-1683.22C-2036.03,-1683.65,-2036.14,-1684.07,-2036.25,-1684.49C-2036.36,-1684.9,-2036.48,-1685.32,-2036.61,-1685.73C-2036.74,-1686.14,-2036.87,-1686.55,-2037.02,-1686.96C-2037.17,-1687.37,-2037.33,-1687.77,-2037.49,-1688.17C-2037.76,-1688.7,-2038.04,-1689.23,-2038.32,-1689.75C-2038.61,-1690.27,-2038.91,-1690.78,-2039.21,-1691.29C-2039.52,-1691.8,-2039.83,-1692.31,-2040.16,-1692.81C-2040.48,-1693.31,-2040.81,-1693.8,-2041.15,-1694.28C-2041.67,-1695.01,-2042.23,-1695.69,-2042.84,-1696.33C-2043.46,-1696.97,-2044.12,-1697.57,-2044.82,-1698.11C-2045.52,-1698.65,-2046.26,-1699.14,-2047.03,-1699.57C-2047.8,-1700,-2048.61,-1700.38,-2049.44,-1700.69C-2050.19,-1700.96,-2050.97,-1701.18,-2051.75,-1701.36C-2052.53,-1701.54,-2053.32,-1701.66,-2054.12,-1701.74C-2054.92,-1701.82,-2055.72,-1701.86,-2056.52,-1701.84C-2057.33,-1701.83,-2058.13,-1701.76,-2058.92,-1701.65C-2059.96,-1701.54,-2060.99,-1701.33,-2062,-1701.03C-2063,-1700.73,-2063.97,-1700.33,-2064.9,-1699.85C-2065.84,-1699.37,-2066.72,-1698.8,-2067.54,-1698.15C-2068.37,-1697.51,-2069.13,-1696.78,-2069.82,-1696C-2070.24,-1695.55,-2070.66,-1695.1,-2071.06,-1694.65C-2071.47,-1694.19,-2071.87,-1693.73,-2072.26,-1693.26C-2072.66,-1692.79,-2073.04,-1692.32,-2073.43,-1691.84C-2073.81,-1691.37,-2074.18,-1690.88,-2074.55,-1690.4C-2075.36,-1689.32,-2076.04,-1688.14,-2076.57,-1686.9C-2077.11,-1685.66,-2077.49,-1684.36,-2077.72,-1683.03C-2077.94,-1681.69,-2078,-1680.34,-2077.9,-1678.99C-2077.81,-1677.64,-2077.55,-1676.31,-2077.13,-1675.03C-2076.98,-1674.51,-2076.92,-1673.9,-2076.19,-1673.65C-2075.99,-1673.95,-2075.79,-1674.2,-2075.64,-1674.47C-2075.27,-1675.17,-2074.86,-1675.84,-2074.42,-1676.49C-2073.98,-1677.15,-2073.5,-1677.78,-2073,-1678.39C-2072.5,-1678.99,-2071.97,-1679.58,-2071.41,-1680.13C-2070.85,-1680.69,-2070.27,-1681.22,-2069.66,-1681.72C-2069.27,-1682.03,-2068.87,-1682.33,-2068.48,-1682.63C-2068.08,-1682.92,-2067.67,-1683.22,-2067.27,-1683.5C-2066.86,-1683.79,-2066.45,-1684.07,-2066.04,-1684.35C-2065.62,-1684.62,-2065.2,-1684.89,-2064.78,-1685.16C-2064.62,-1685.23,-2064.48,-1685.33,-2064.36,-1685.46C-2064.24,-1685.58,-2064.15,-1685.73,-2064.09,-1685.9C-2064.02,-1686.06,-2063.99,-1686.23,-2063.99,-1686.4C-2064,-1686.58,-2064.03,-1686.75,-2064.1,-1686.91C-2064.99,-1689.9,-2064.35,-1692.77,-2063.29,-1695.58C-2063.13,-1695.98,-2062.92,-1696.36,-2062.67,-1696.72C-2062.42,-1697.08,-2062.13,-1697.41,-2061.81,-1697.7C-2061.49,-1698,-2061.14,-1698.26,-2060.76,-1698.47C-2060.38,-1698.69,-2059.98,-1698.86,-2059.57,-1698.99C-2059.37,-1699.07,-2059.17,-1699.14,-2058.97,-1699.2C-2058.78,-1699.27,-2058.58,-1699.33,-2058.37,-1699.38C-2058.17,-1699.44,-2057.97,-1699.49,-2057.76,-1699.53C-2057.56,-1699.57,-2057.36,-1699.61,-2057.15,-1699.65C-2056.52,-1699.78,-2055.87,-1699.83,-2055.22,-1699.8C-2054.58,-1699.78,-2053.94,-1699.68,-2053.32,-1699.5C-2052.7,-1699.32,-2052.1,-1699.06,-2051.54,-1698.74C-2050.98,-1698.42,-2050.46,-1698.03,-2049.99,-1697.59C-2049.38,-1697.01,-2048.84,-1696.36,-2048.39,-1695.65C-2047.93,-1694.95,-2047.57,-1694.18,-2047.3,-1693.39C-2047.03,-1692.59,-2046.86,-1691.76,-2046.79,-1690.93C-2046.73,-1690.09,-2046.76,-1689.24,-2046.9,-1688.42C-2047.33,-1685.64,-2048.47,-1683.22,-2051.51,-1682.32C-2051.72,-1682.25,-2051.88,-1682.02,-2052.12,-1681.82C-2051.78,-1681.41,-2051.48,-1680.99,-2051.2,-1680.55C-2050.92,-1680.11,-2050.67,-1679.66,-2050.45,-1679.19C-2050.23,-1678.72,-2050.04,-1678.23,-2049.88,-1677.74C-2049.72,-1677.24,-2049.6,-1676.74,-2049.5,-1676.22C-2049.12,-1674.41,-2048.59,-1672.61,-2048.04,-1670.84C-2047.67,-1669.68,-2047.02,-1668.6,-2046.73,-1667.42C-2046.67,-1667.1,-2046.62,-1666.77,-2046.57,-1666.44C-2046.52,-1666.11,-2046.48,-1665.78,-2046.44,-1665.45C-2046.41,-1665.13,-2046.37,-1664.8,-2046.35,-1664.47C-2046.32,-1664.13,-2046.3,-1663.8,-2046.29,-1663.47ZM-2059.39,-1682.69C-2059.65,-1682.63,-2059.91,-1682.56,-2060.17,-1682.49C-2060.43,-1682.42,-2060.69,-1682.34,-2060.94,-1682.25C-2061.2,-1682.17,-2061.45,-1682.08,-2061.7,-1681.98C-2061.95,-1681.88,-2062.2,-1681.78,-2062.45,-1681.67C-2062.93,-1681.42,-2063.41,-1681.15,-2063.88,-1680.88C-2064.36,-1680.61,-2064.83,-1680.33,-2065.3,-1680.05C-2065.76,-1679.77,-2066.23,-1679.48,-2066.68,-1679.18C-2067.14,-1678.88,-2067.6,-1678.58,-2068.05,-1678.27C-2068.66,-1677.82,-2069.25,-1677.35,-2069.81,-1676.84C-2070.37,-1676.34,-2070.91,-1675.8,-2071.41,-1675.24C-2071.92,-1674.68,-2072.39,-1674.09,-2072.84,-1673.48C-2073.28,-1672.87,-2073.69,-1672.23,-2074.07,-1671.58C-2074.4,-1671.03,-2074.82,-1670.48,-2074.28,-1669.82C-2074.03,-1669.49,-2073.77,-1669.16,-2073.51,-1668.83C-2073.25,-1668.51,-2072.99,-1668.18,-2072.72,-1667.86C-2072.45,-1667.55,-2072.18,-1667.23,-2071.9,-1666.92C-2071.62,-1666.61,-2071.34,-1666.3,-2071.05,-1666C-2070.51,-1665.45,-2069.93,-1664.94,-2069.32,-1664.47C-2068.71,-1663.99,-2068.07,-1663.57,-2067.4,-1663.18C-2066.73,-1662.8,-2066.04,-1662.46,-2065.32,-1662.17C-2064.6,-1661.88,-2063.87,-1661.64,-2063.12,-1661.45C-2062.94,-1661.4,-2062.75,-1661.34,-2062.57,-1661.28C-2062.38,-1661.23,-2062.2,-1661.16,-2062.02,-1661.1C-2061.84,-1661.03,-2061.66,-1660.96,-2061.48,-1660.88C-2061.31,-1660.81,-2061.13,-1660.73,-2060.96,-1660.64C-2060.72,-1660.53,-2060.48,-1660.44,-2060.23,-1660.37C-2059.99,-1660.3,-2059.73,-1660.25,-2059.48,-1660.22C-2059.22,-1660.19,-2058.96,-1660.18,-2058.71,-1660.19C-2058.45,-1660.2,-2058.19,-1660.23,-2057.94,-1660.28C-2055.38,-1660.88,-2052.82,-1661.52,-2050.28,-1662.18C-2049.96,-1662.27,-2049.53,-1662.6,-2049.48,-1662.87C-2049.21,-1664.43,-2048.74,-1665.96,-2049.65,-1667.55C-2049.8,-1667.84,-2049.93,-1668.13,-2050.06,-1668.43C-2050.18,-1668.72,-2050.3,-1669.02,-2050.4,-1669.33C-2050.51,-1669.63,-2050.61,-1669.93,-2050.7,-1670.24C-2050.79,-1670.55,-2050.87,-1670.86,-2050.94,-1671.17C-2051.5,-1673.15,-2051.92,-1675.17,-2052.51,-1677.13C-2052.75,-1677.88,-2053.09,-1678.58,-2053.53,-1679.23C-2053.98,-1679.87,-2054.51,-1680.45,-2055.12,-1680.94C-2055.72,-1681.43,-2056.4,-1681.83,-2057.12,-1682.13C-2057.84,-1682.42,-2058.61,-1682.61,-2059.38,-1682.69ZM-2055.85,-1697.19C-2056.25,-1697.14,-2056.83,-1697.11,-2057.39,-1696.99C-2057.92,-1696.94,-2058.44,-1696.8,-2058.92,-1696.57C-2059.41,-1696.34,-2059.85,-1696.03,-2060.23,-1695.66C-2060.61,-1695.28,-2060.92,-1694.85,-2061.15,-1694.37C-2061.38,-1693.88,-2061.53,-1693.37,-2061.59,-1692.84C-2061.72,-1691.95,-2062.01,-1691.08,-2062.13,-1690.19C-2062.52,-1687.35,-2061.15,-1685.68,-2058.27,-1685.38C-2057.57,-1685.31,-2056.9,-1685.05,-2056.2,-1684.95C-2055.97,-1684.9,-2055.73,-1684.86,-2055.5,-1684.83C-2055.26,-1684.79,-2055.02,-1684.77,-2054.78,-1684.74C-2054.55,-1684.72,-2054.31,-1684.7,-2054.07,-1684.69C-2053.83,-1684.68,-2053.59,-1684.67,-2053.35,-1684.67C-2052.98,-1684.67,-2052.61,-1684.74,-2052.26,-1684.86C-2051.91,-1684.98,-2051.58,-1685.15,-2051.28,-1685.37C-2050.98,-1685.59,-2050.71,-1685.85,-2050.5,-1686.15C-2050.28,-1686.45,-2050.11,-1686.78,-2049.99,-1687.14C-2048.88,-1689.85,-2049.48,-1692.28,-2050.99,-1694.64C-2051.24,-1695.05,-2051.55,-1695.42,-2051.9,-1695.75C-2052.25,-1696.08,-2052.64,-1696.36,-2053.07,-1696.58C-2053.49,-1696.81,-2053.95,-1696.97,-2054.42,-1697.08C-2054.89,-1697.18,-2055.37,-1697.22,-2055.85,-1697.19Z" transform="translate(2080.59,1704.5)"/></g><g transform="translate(-1878.03,-1681.07) translate(-22.1332,-22.1796)"><path id="Trazado_38526" data-name="Trazado 38526" d="M-1789.72,-1632.37C-1789.39,-1628.88,-1791,-1626.48,-1793.61,-1624.4C-1794.49,-1623.74,-1795.4,-1623.11,-1796.34,-1622.51C-1797.27,-1621.92,-1798.23,-1621.36,-1799.21,-1620.84C-1800.18,-1620.32,-1801.18,-1619.83,-1802.2,-1619.39C-1803.21,-1618.95,-1804.24,-1618.54,-1805.29,-1618.18C-1807.38,-1617.37,-1809.48,-1616.55,-1811.61,-1615.86C-1812.33,-1615.59,-1813.08,-1615.41,-1813.85,-1615.32C-1814.61,-1615.23,-1815.39,-1615.24,-1816.15,-1615.34C-1816.91,-1615.44,-1817.66,-1615.63,-1818.38,-1615.92C-1819.09,-1616.2,-1819.77,-1616.58,-1820.39,-1617.03C-1820.74,-1617.26,-1821.09,-1617.49,-1821.44,-1617.71C-1821.8,-1617.93,-1822.16,-1618.14,-1822.52,-1618.35C-1822.88,-1618.56,-1823.24,-1618.76,-1823.61,-1618.96C-1823.98,-1619.15,-1824.35,-1619.34,-1824.73,-1619.53C-1824.99,-1619.65,-1825.24,-1619.78,-1825.49,-1619.93C-1825.74,-1620.08,-1825.97,-1620.25,-1826.2,-1620.42C-1826.43,-1620.6,-1826.64,-1620.79,-1826.85,-1621C-1827.05,-1621.2,-1827.25,-1621.41,-1827.43,-1621.64C-1827.47,-1621.7,-1827.52,-1621.77,-1827.57,-1621.83C-1827.62,-1621.89,-1827.67,-1621.96,-1827.73,-1622.01C-1827.78,-1622.07,-1827.84,-1622.13,-1827.9,-1622.19C-1827.95,-1622.24,-1828.01,-1622.3,-1828.08,-1622.35C-1830.33,-1624.14,-1831.25,-1626.61,-1831.77,-1629.34C-1832.21,-1631.67,-1832.8,-1633.97,-1833.39,-1636.27C-1833.52,-1636.8,-1833.63,-1637.33,-1833.71,-1637.87C-1833.8,-1638.41,-1833.86,-1638.96,-1833.9,-1639.5C-1833.94,-1640.05,-1833.95,-1640.59,-1833.94,-1641.14C-1833.94,-1641.68,-1833.91,-1642.23,-1833.86,-1642.77C-1833.8,-1643.29,-1833.71,-1643.79,-1833.59,-1644.29C-1833.47,-1644.79,-1833.31,-1645.29,-1833.12,-1645.77C-1832.93,-1646.24,-1832.72,-1646.71,-1832.47,-1647.16C-1832.22,-1647.61,-1831.94,-1648.05,-1831.63,-1648.46C-1831.15,-1649.18,-1830.64,-1649.88,-1830.09,-1650.56C-1829.55,-1651.24,-1828.98,-1651.9,-1828.39,-1652.53C-1827.79,-1653.16,-1827.17,-1653.77,-1826.53,-1654.35C-1825.88,-1654.94,-1825.22,-1655.49,-1824.53,-1656.02C-1823.94,-1656.45,-1823.34,-1656.84,-1822.7,-1657.19C-1822.07,-1657.54,-1821.41,-1657.85,-1820.74,-1658.11C-1820.06,-1658.37,-1819.37,-1658.59,-1818.66,-1658.75C-1817.96,-1658.92,-1817.25,-1659.04,-1816.53,-1659.11C-1814.3,-1659.38,-1812.05,-1659.45,-1809.81,-1659.59C-1809.7,-1659.6,-1809.59,-1659.61,-1809.48,-1659.61C-1809.36,-1659.62,-1809.25,-1659.62,-1809.14,-1659.61C-1809.02,-1659.6,-1808.91,-1659.59,-1808.8,-1659.58C-1808.69,-1659.56,-1808.58,-1659.54,-1808.47,-1659.52C-1804.58,-1658.37,-1800.69,-1657.2,-1797.44,-1654.62C-1797.42,-1654.6,-1797.39,-1654.58,-1797.36,-1654.56C-1797.34,-1654.54,-1797.31,-1654.52,-1797.29,-1654.5C-1797.26,-1654.48,-1797.24,-1654.46,-1797.21,-1654.43C-1797.19,-1654.41,-1797.17,-1654.39,-1797.14,-1654.37C-1793.85,-1650.9,-1791.19,-1647.13,-1791.06,-1642.08C-1791.04,-1641.72,-1791.01,-1641.37,-1790.97,-1641.02C-1790.94,-1640.67,-1790.9,-1640.32,-1790.85,-1639.97C-1790.81,-1639.62,-1790.76,-1639.27,-1790.71,-1638.92C-1790.65,-1638.57,-1790.59,-1638.22,-1790.53,-1637.88C-1790.28,-1636.04,-1790,-1634.21,-1789.72,-1632.37ZM-1819.21,-1637.86C-1819.43,-1637.92,-1819.62,-1638.02,-1819.8,-1638.16C-1819.97,-1638.29,-1820.11,-1638.46,-1820.22,-1638.65C-1820.33,-1638.84,-1820.39,-1639.06,-1820.42,-1639.27C-1820.44,-1639.49,-1820.42,-1639.71,-1820.36,-1639.92C-1820.34,-1640.15,-1820.34,-1640.37,-1820.36,-1640.6C-1820.38,-1640.82,-1820.42,-1641.04,-1820.48,-1641.26C-1820.54,-1641.48,-1820.62,-1641.69,-1820.72,-1641.89C-1820.82,-1642.1,-1820.93,-1642.29,-1821.07,-1642.47C-1821.31,-1642.93,-1821.52,-1643.4,-1821.69,-1643.88C-1821.86,-1644.37,-1822,-1644.86,-1822.1,-1645.37C-1822.2,-1645.87,-1822.27,-1646.39,-1822.29,-1646.9C-1822.32,-1647.41,-1822.3,-1647.93,-1822.25,-1648.44C-1822.24,-1648.9,-1822.16,-1649.34,-1822.02,-1649.78C-1821.89,-1650.21,-1821.69,-1650.62,-1821.44,-1651C-1821.19,-1651.37,-1820.89,-1651.72,-1820.54,-1652.01C-1820.2,-1652.31,-1819.82,-1652.55,-1819.4,-1652.74C-1818.7,-1653.05,-1817.96,-1653.29,-1817.21,-1653.45C-1816.46,-1653.61,-1815.69,-1653.7,-1814.92,-1653.7C-1814.15,-1653.71,-1813.38,-1653.63,-1812.62,-1653.48C-1811.87,-1653.33,-1811.13,-1653.1,-1810.42,-1652.8C-1810.31,-1652.76,-1810.21,-1652.71,-1810.11,-1652.65C-1810.01,-1652.6,-1809.92,-1652.54,-1809.83,-1652.48C-1809.73,-1652.41,-1809.64,-1652.34,-1809.56,-1652.27C-1809.47,-1652.2,-1809.39,-1652.12,-1809.31,-1652.04C-1808.7,-1651.43,-1808.19,-1650.71,-1807.8,-1649.93C-1807.42,-1649.15,-1807.17,-1648.32,-1807.06,-1647.45C-1806.94,-1646.59,-1806.98,-1645.72,-1807.15,-1644.87C-1807.32,-1644.01,-1807.64,-1643.2,-1808.08,-1642.45C-1808.34,-1642.03,-1808.55,-1641.59,-1808.82,-1641.12C-1808.6,-1641.02,-1808.39,-1640.93,-1808.16,-1640.86C-1807.93,-1640.79,-1807.7,-1640.74,-1807.47,-1640.71C-1807.24,-1640.68,-1807,-1640.67,-1806.77,-1640.68C-1806.53,-1640.68,-1806.3,-1640.71,-1806.06,-1640.76C-1805.58,-1640.79,-1805.1,-1640.76,-1804.62,-1640.69C-1804.15,-1640.61,-1803.68,-1640.49,-1803.23,-1640.31C-1802.79,-1640.13,-1802.36,-1639.91,-1801.96,-1639.64C-1801.56,-1639.37,-1801.19,-1639.05,-1800.86,-1638.7C-1800.61,-1638.48,-1800.37,-1638.24,-1800.14,-1637.99C-1799.92,-1637.74,-1799.7,-1637.48,-1799.5,-1637.21C-1799.3,-1636.95,-1799.11,-1636.67,-1798.93,-1636.38C-1798.76,-1636.09,-1798.6,-1635.79,-1798.45,-1635.49C-1798.17,-1634.84,-1797.77,-1634.25,-1797.42,-1633.64C-1796.61,-1632.18,-1795.8,-1630.72,-1794.98,-1629.27C-1794.71,-1628.8,-1794.66,-1628.13,-1793.88,-1628C-1793.67,-1628.14,-1793.48,-1628.31,-1793.31,-1628.5C-1793.14,-1628.69,-1793,-1628.9,-1792.88,-1629.13C-1792.76,-1629.36,-1792.67,-1629.6,-1792.61,-1629.84C-1792.55,-1630.09,-1792.52,-1630.35,-1792.52,-1630.6C-1792.52,-1631,-1792.53,-1631.4,-1792.54,-1631.8C-1792.55,-1632.2,-1792.57,-1632.6,-1792.59,-1633C-1792.62,-1633.4,-1792.65,-1633.8,-1792.68,-1634.2C-1792.71,-1634.6,-1792.75,-1635,-1792.79,-1635.4C-1793.02,-1637.44,-1793.57,-1639.46,-1793.62,-1641.5C-1793.73,-1645.96,-1796.11,-1649.21,-1798.89,-1652.32C-1798.95,-1652.37,-1799.02,-1652.42,-1799.08,-1652.47C-1799.14,-1652.52,-1799.21,-1652.57,-1799.27,-1652.61C-1799.34,-1652.66,-1799.4,-1652.71,-1799.47,-1652.75C-1799.54,-1652.79,-1799.61,-1652.84,-1799.68,-1652.88C-1801.96,-1654.65,-1804.66,-1655.5,-1807.33,-1656.44C-1807.69,-1656.57,-1808.06,-1656.68,-1808.44,-1656.77C-1808.81,-1656.86,-1809.19,-1656.93,-1809.58,-1656.97C-1809.96,-1657.02,-1810.34,-1657.05,-1810.73,-1657.05C-1811.11,-1657.05,-1811.5,-1657.04,-1811.88,-1657C-1812.31,-1656.96,-1812.74,-1656.92,-1813.17,-1656.87C-1813.6,-1656.82,-1814.03,-1656.77,-1814.46,-1656.71C-1814.89,-1656.65,-1815.32,-1656.58,-1815.75,-1656.51C-1816.17,-1656.44,-1816.6,-1656.36,-1817.03,-1656.28C-1817.37,-1656.22,-1817.71,-1656.14,-1818.05,-1656.05C-1818.4,-1655.97,-1818.73,-1655.87,-1819.07,-1655.76C-1819.4,-1655.65,-1819.73,-1655.53,-1820.06,-1655.4C-1820.39,-1655.27,-1820.71,-1655.13,-1821.03,-1654.98C-1824.19,-1653.37,-1826.46,-1650.74,-1828.66,-1648.02C-1829.28,-1647.26,-1829.81,-1646.42,-1830.23,-1645.54C-1830.65,-1644.65,-1830.96,-1643.72,-1831.15,-1642.75C-1831.35,-1641.79,-1831.42,-1640.81,-1831.38,-1639.83C-1831.34,-1638.85,-1831.18,-1637.87,-1830.9,-1636.93C-1830.31,-1634.5,-1829.68,-1632.07,-1829.3,-1629.6C-1828.81,-1626.43,-1826.77,-1624.35,-1824.59,-1622.33C-1824.49,-1622.23,-1824.25,-1622.29,-1824.02,-1622.27C-1823.21,-1627.65,-1822.37,-1632.97,-1819.21,-1637.87ZM-1808.61,-1638.11L-1808.61,-1638.13C-1809.45,-1638.13,-1810.29,-1638.11,-1811.12,-1638.13C-1811.7,-1638.14,-1812.28,-1638.09,-1812.85,-1637.96C-1813.41,-1637.83,-1813.96,-1637.63,-1814.47,-1637.37C-1814.99,-1637.11,-1815.47,-1636.78,-1815.91,-1636.4C-1816.35,-1636.02,-1816.73,-1635.59,-1817.06,-1635.11C-1820.01,-1631.23,-1820.73,-1626.56,-1820.99,-1621.83C-1820.99,-1621.7,-1820.97,-1621.58,-1820.94,-1621.45C-1820.91,-1621.33,-1820.87,-1621.21,-1820.82,-1621.09C-1820.76,-1620.98,-1820.7,-1620.87,-1820.63,-1620.76C-1820.56,-1620.66,-1820.47,-1620.56,-1820.38,-1620.47C-1818.08,-1618.31,-1815.4,-1616.95,-1812.01,-1618.6C-1811.9,-1618.67,-1811.79,-1618.74,-1811.68,-1618.8C-1811.56,-1618.86,-1811.45,-1618.91,-1811.33,-1618.97C-1811.22,-1619.02,-1811.1,-1619.07,-1810.98,-1619.12C-1810.86,-1619.16,-1810.74,-1619.21,-1810.61,-1619.24C-1807.12,-1619.99,-1803.97,-1621.63,-1800.72,-1623.01C-1800.4,-1623.17,-1800.07,-1623.35,-1799.75,-1623.52C-1799.42,-1623.7,-1799.11,-1623.89,-1798.79,-1624.08C-1798.48,-1624.27,-1798.17,-1624.47,-1797.86,-1624.68C-1797.55,-1624.88,-1797.25,-1625.09,-1796.95,-1625.31C-1796.85,-1625.36,-1796.76,-1625.43,-1796.69,-1625.52C-1796.62,-1625.61,-1796.57,-1625.71,-1796.54,-1625.82C-1796.51,-1625.93,-1796.51,-1626.05,-1796.52,-1626.16C-1796.54,-1626.27,-1796.58,-1626.38,-1796.64,-1626.47C-1797.31,-1627.86,-1797.89,-1629.29,-1798.62,-1630.65C-1799.41,-1632.11,-1800.28,-1633.55,-1801.2,-1634.93C-1802.45,-1636.81,-1803.92,-1638.37,-1806.49,-1638.11C-1806.67,-1638.1,-1806.85,-1638.09,-1807.02,-1638.09C-1807.2,-1638.09,-1807.38,-1638.08,-1807.55,-1638.08C-1807.73,-1638.08,-1807.91,-1638.09,-1808.08,-1638.09C-1808.26,-1638.09,-1808.44,-1638.1,-1808.61,-1638.11ZM-1819.88,-1647.38C-1819.85,-1646.85,-1819.77,-1646.32,-1819.66,-1645.8C-1819.56,-1645.28,-1819.41,-1644.77,-1819.24,-1644.27C-1819.07,-1643.77,-1818.86,-1643.28,-1818.62,-1642.8C-1818.38,-1642.33,-1818.12,-1641.87,-1817.82,-1641.43C-1817.74,-1641.27,-1817.64,-1641.12,-1817.52,-1640.99C-1817.4,-1640.86,-1817.26,-1640.74,-1817.11,-1640.65C-1816.96,-1640.56,-1816.79,-1640.48,-1816.62,-1640.43C-1816.45,-1640.39,-1816.27,-1640.36,-1816.1,-1640.36C-1813.92,-1640.38,-1810.41,-1642.99,-1809.73,-1645.09C-1809.22,-1646.66,-1809.92,-1647.97,-1810.56,-1649.31C-1811.11,-1650.46,-1812.14,-1650.64,-1813.24,-1650.91C-1813.55,-1650.99,-1813.86,-1651.04,-1814.18,-1651.07C-1814.5,-1651.11,-1814.82,-1651.12,-1815.14,-1651.12C-1815.46,-1651.11,-1815.78,-1651.09,-1816.09,-1651.05C-1816.41,-1651.01,-1816.72,-1650.95,-1817.03,-1650.87C-1817.45,-1650.82,-1817.85,-1650.7,-1818.21,-1650.5C-1818.58,-1650.3,-1818.9,-1650.03,-1819.17,-1649.7C-1819.43,-1649.38,-1819.63,-1649.01,-1819.75,-1648.61C-1819.88,-1648.21,-1819.92,-1647.79,-1819.89,-1647.38Z" transform="translate(1833.94,1659.62)"/></g><g transform="translate(-1958.55,-1785.48) translate(-19.1606,-20.2025)"><path id="Trazado_38527" data-name="Trazado 38527" d="M-1906.95,-1788.77C-1906.91,-1788.1,-1906.91,-1787.42,-1906.94,-1786.75C-1906.98,-1786.07,-1907.06,-1785.4,-1907.18,-1784.74C-1907.3,-1784.07,-1907.46,-1783.41,-1907.66,-1782.77C-1907.85,-1782.12,-1908.09,-1781.49,-1908.36,-1780.87C-1908.72,-1780.08,-1909.14,-1779.31,-1909.61,-1778.58C-1910.08,-1777.85,-1910.61,-1777.16,-1911.18,-1776.5C-1911.75,-1775.85,-1912.36,-1775.24,-1913.02,-1774.67C-1913.68,-1774.1,-1914.38,-1773.58,-1915.11,-1773.12C-1915.4,-1772.9,-1915.7,-1772.69,-1916.02,-1772.5C-1916.33,-1772.32,-1916.66,-1772.15,-1916.99,-1772C-1917.32,-1771.85,-1917.66,-1771.72,-1918.01,-1771.61C-1918.36,-1771.5,-1918.71,-1771.42,-1919.07,-1771.35C-1921.61,-1771,-1924.09,-1770.29,-1926.62,-1769.83C-1926.82,-1769.79,-1927.03,-1769.77,-1927.23,-1769.75C-1927.44,-1769.73,-1927.65,-1769.73,-1927.85,-1769.73C-1928.06,-1769.74,-1928.27,-1769.75,-1928.47,-1769.78C-1928.68,-1769.81,-1928.88,-1769.84,-1929.09,-1769.89C-1930.22,-1770.18,-1931.34,-1770.55,-1932.43,-1770.99C-1933.51,-1771.43,-1934.57,-1771.94,-1935.59,-1772.52C-1936.61,-1773.1,-1937.6,-1773.74,-1938.54,-1774.44C-1939.47,-1775.15,-1940.37,-1775.91,-1941.2,-1776.73C-1941.46,-1776.96,-1941.7,-1777.2,-1941.92,-1777.46C-1942.14,-1777.71,-1942.34,-1777.98,-1942.52,-1778.27C-1942.7,-1778.56,-1942.86,-1778.86,-1943,-1779.16C-1943.14,-1779.47,-1943.25,-1779.79,-1943.35,-1780.12C-1944.25,-1783.65,-1945.37,-1787.15,-1945.22,-1790.9C-1945.19,-1791.77,-1945.1,-1792.63,-1944.96,-1793.49C-1944.81,-1794.35,-1944.61,-1795.19,-1944.36,-1796.02C-1944.11,-1796.85,-1943.8,-1797.67,-1943.45,-1798.46C-1943.09,-1799.25,-1942.69,-1800.02,-1942.23,-1800.76C-1941.87,-1801.37,-1941.47,-1801.95,-1941.04,-1802.52C-1940.61,-1803.08,-1940.16,-1803.63,-1939.67,-1804.14C-1939.19,-1804.66,-1938.67,-1805.15,-1938.14,-1805.61C-1937.6,-1806.07,-1937.04,-1806.51,-1936.45,-1806.91C-1935.96,-1807.23,-1935.44,-1807.53,-1934.91,-1807.81C-1934.39,-1808.09,-1933.84,-1808.33,-1933.29,-1808.56C-1932.74,-1808.78,-1932.18,-1808.98,-1931.61,-1809.15C-1931.04,-1809.32,-1930.46,-1809.46,-1929.88,-1809.57C-1929.08,-1809.78,-1928.27,-1809.92,-1927.46,-1810.02C-1926.64,-1810.11,-1925.82,-1810.15,-1925,-1810.13C-1924.18,-1810.11,-1923.36,-1810.04,-1922.55,-1809.9C-1921.74,-1809.77,-1920.95,-1809.59,-1920.16,-1809.34C-1919.95,-1809.29,-1919.73,-1809.22,-1919.52,-1809.14C-1919.31,-1809.07,-1919.1,-1808.98,-1918.9,-1808.89C-1918.69,-1808.8,-1918.49,-1808.7,-1918.3,-1808.6C-1918.1,-1808.49,-1917.91,-1808.38,-1917.72,-1808.26C-1916.83,-1807.67,-1915.99,-1807.03,-1915.2,-1806.32C-1914.41,-1805.62,-1913.67,-1804.86,-1912.98,-1804.05C-1912.3,-1803.24,-1911.67,-1802.38,-1911.11,-1801.48C-1910.55,-1800.58,-1910.05,-1799.64,-1909.62,-1798.67C-1909.35,-1798.02,-1909.05,-1797.37,-1908.73,-1796.74C-1908.39,-1796.14,-1908.1,-1795.52,-1907.85,-1794.87C-1907.6,-1794.23,-1907.4,-1793.56,-1907.25,-1792.89C-1907.1,-1792.22,-1907,-1791.53,-1906.95,-1790.84C-1906.9,-1790.15,-1906.9,-1789.46,-1906.95,-1788.77ZM-1915.81,-1776.15C-1915.31,-1776.44,-1915.08,-1776.55,-1914.87,-1776.68C-1914.43,-1777.03,-1914,-1777.4,-1913.6,-1777.79C-1913.21,-1778.19,-1912.83,-1778.62,-1912.49,-1779.06C-1912.15,-1779.51,-1911.84,-1779.98,-1911.57,-1780.47C-1911.29,-1780.96,-1911.04,-1781.47,-1910.84,-1781.99C-1910.42,-1782.86,-1910.1,-1783.77,-1909.86,-1784.71C-1909.62,-1785.64,-1909.48,-1786.59,-1909.42,-1787.56C-1909.37,-1788.52,-1909.41,-1789.48,-1909.54,-1790.44C-1909.67,-1791.39,-1909.89,-1792.33,-1910.2,-1793.25C-1910.67,-1794.77,-1911.52,-1796.17,-1912.12,-1797.66C-1912.49,-1798.48,-1912.92,-1799.27,-1913.39,-1800.04C-1913.87,-1800.8,-1914.4,-1801.53,-1914.97,-1802.22C-1915.55,-1802.91,-1916.17,-1803.56,-1916.83,-1804.17C-1917.49,-1804.78,-1918.2,-1805.34,-1918.94,-1805.85C-1919.06,-1805.95,-1919.19,-1806.04,-1919.33,-1806.13C-1919.46,-1806.21,-1919.6,-1806.29,-1919.75,-1806.37C-1919.89,-1806.44,-1920.03,-1806.51,-1920.18,-1806.57C-1920.33,-1806.63,-1920.48,-1806.68,-1920.64,-1806.73C-1921.88,-1807.11,-1923.17,-1807.34,-1924.47,-1807.43C-1925.77,-1807.51,-1927.07,-1807.45,-1928.36,-1807.23C-1929.64,-1807.02,-1930.9,-1806.65,-1932.1,-1806.15C-1933.3,-1805.65,-1934.44,-1805,-1935.49,-1804.24C-1936.26,-1803.68,-1936.99,-1803.07,-1937.66,-1802.39C-1938.33,-1801.72,-1938.94,-1801,-1939.5,-1800.22C-1940.05,-1799.45,-1940.54,-1798.64,-1940.95,-1797.78C-1941.37,-1796.93,-1941.72,-1796.05,-1941.99,-1795.14C-1942.3,-1794.18,-1942.53,-1793.2,-1942.66,-1792.2C-1942.8,-1791.21,-1942.85,-1790.2,-1942.81,-1789.2C-1942.77,-1788.19,-1942.64,-1787.19,-1942.43,-1786.21C-1942.22,-1785.23,-1941.92,-1784.27,-1941.54,-1783.34C-1941.37,-1783.39,-1941.28,-1783.39,-1941.25,-1783.43C-1941.21,-1783.48,-1941.17,-1783.52,-1941.13,-1783.57C-1941.09,-1783.62,-1941.05,-1783.67,-1941.01,-1783.73C-1940.97,-1783.78,-1940.94,-1783.83,-1940.9,-1783.89C-1940.87,-1783.94,-1940.84,-1783.99,-1940.81,-1784.05C-1940.56,-1784.56,-1940.28,-1785.04,-1939.97,-1785.51C-1939.65,-1785.98,-1939.3,-1786.42,-1938.92,-1786.83C-1938.54,-1787.25,-1938.13,-1787.64,-1937.7,-1787.99C-1937.26,-1788.35,-1936.8,-1788.67,-1936.32,-1788.96C-1935.14,-1789.74,-1934.12,-1790.76,-1932.92,-1791.5C-1932.46,-1791.72,-1932.04,-1792.02,-1931.68,-1792.38C-1931.32,-1792.74,-1931.02,-1793.16,-1930.8,-1793.62C-1930.57,-1794.08,-1930.43,-1794.57,-1930.36,-1795.07C-1930.3,-1795.58,-1930.32,-1796.09,-1930.43,-1796.59C-1930.49,-1797.07,-1930.5,-1797.56,-1930.43,-1798.04C-1930.37,-1798.52,-1930.24,-1798.99,-1930.05,-1799.44C-1929.86,-1799.89,-1929.61,-1800.3,-1929.3,-1800.68C-1929,-1801.06,-1928.65,-1801.4,-1928.26,-1801.69C-1928.01,-1801.89,-1927.8,-1802.14,-1927.56,-1802.35C-1925.15,-1804.42,-1922.19,-1804.03,-1919.93,-1802.45C-1919.54,-1802.16,-1919.17,-1801.84,-1918.83,-1801.5C-1918.49,-1801.15,-1918.18,-1800.78,-1917.9,-1800.39C-1917.61,-1800,-1917.35,-1799.59,-1917.13,-1799.16C-1916.91,-1798.73,-1916.72,-1798.29,-1916.56,-1797.83C-1916.36,-1797.41,-1916.21,-1796.96,-1916.13,-1796.5C-1916.04,-1796.04,-1916,-1795.58,-1916.03,-1795.11C-1916.05,-1794.64,-1916.14,-1794.18,-1916.28,-1793.74C-1916.41,-1793.29,-1916.61,-1792.86,-1916.85,-1792.46C-1917.39,-1791.62,-1918.52,-1790.95,-1918.65,-1790.09C-1918.78,-1789.23,-1918.01,-1788.2,-1917.65,-1787.24C-1917.54,-1786.94,-1917.48,-1786.62,-1917.39,-1786.31C-1917.15,-1785.49,-1916.93,-1784.66,-1916.74,-1783.82C-1916.55,-1782.98,-1916.38,-1782.14,-1916.25,-1781.29C-1916.12,-1780.44,-1916.02,-1779.58,-1915.94,-1778.72C-1915.87,-1777.87,-1915.83,-1777.01,-1915.81,-1776.15ZM-1926.82,-1772.34C-1924.58,-1772.84,-1922.33,-1773.34,-1920.09,-1773.86C-1919.87,-1773.9,-1919.65,-1773.98,-1919.46,-1774.09C-1919.26,-1774.21,-1919.09,-1774.36,-1918.94,-1774.53C-1918.8,-1774.7,-1918.69,-1774.9,-1918.61,-1775.12C-1918.53,-1775.33,-1918.5,-1775.55,-1918.5,-1775.78C-1918.49,-1775.87,-1918.48,-1775.97,-1918.47,-1776.07C-1918.46,-1776.16,-1918.46,-1776.26,-1918.45,-1776.36C-1918.45,-1776.45,-1918.44,-1776.55,-1918.44,-1776.64C-1918.44,-1776.74,-1918.44,-1776.84,-1918.44,-1776.93C-1918.48,-1777.81,-1918.56,-1778.69,-1918.66,-1779.57C-1918.77,-1780.44,-1918.91,-1781.32,-1919.08,-1782.18C-1919.25,-1783.05,-1919.45,-1783.9,-1919.68,-1784.76C-1919.92,-1785.61,-1920.18,-1786.45,-1920.48,-1787.28C-1920.59,-1787.63,-1920.75,-1787.97,-1920.97,-1788.27C-1921.19,-1788.57,-1921.45,-1788.84,-1921.75,-1789.06C-1922.05,-1789.28,-1922.38,-1789.45,-1922.73,-1789.57C-1923.08,-1789.69,-1923.45,-1789.75,-1923.82,-1789.75C-1924.11,-1789.78,-1924.4,-1789.81,-1924.68,-1789.85C-1924.96,-1789.9,-1925.25,-1789.95,-1925.53,-1790C-1925.81,-1790.06,-1926.09,-1790.13,-1926.37,-1790.2C-1926.64,-1790.28,-1926.92,-1790.36,-1927.19,-1790.45C-1927.35,-1790.51,-1927.52,-1790.55,-1927.69,-1790.57C-1927.86,-1790.59,-1928.03,-1790.59,-1928.2,-1790.57C-1928.37,-1790.56,-1928.54,-1790.52,-1928.7,-1790.47C-1928.87,-1790.41,-1929.02,-1790.34,-1929.17,-1790.26C-1929.92,-1789.85,-1930.65,-1789.41,-1931.35,-1788.93C-1932.06,-1788.45,-1932.74,-1787.94,-1933.39,-1787.4C-1934.05,-1786.86,-1934.68,-1786.29,-1935.28,-1785.68C-1935.88,-1785.08,-1936.45,-1784.45,-1936.99,-1783.79C-1937.18,-1783.57,-1937.36,-1783.35,-1937.54,-1783.12C-1937.71,-1782.89,-1937.88,-1782.66,-1938.04,-1782.42C-1938.2,-1782.18,-1938.36,-1781.94,-1938.51,-1781.7C-1938.66,-1781.45,-1938.81,-1781.2,-1938.94,-1780.95C-1939.71,-1779.57,-1939.56,-1778.69,-1938.31,-1777.76C-1937.87,-1777.42,-1937.42,-1777.08,-1936.97,-1776.75C-1936.52,-1776.42,-1936.06,-1776.1,-1935.59,-1775.79C-1935.12,-1775.47,-1934.65,-1775.17,-1934.18,-1774.87C-1933.7,-1774.58,-1933.22,-1774.29,-1932.73,-1774.01C-1932.29,-1773.74,-1931.83,-1773.5,-1931.36,-1773.29C-1930.88,-1773.08,-1930.39,-1772.91,-1929.89,-1772.77C-1929.39,-1772.62,-1928.89,-1772.52,-1928.37,-1772.45C-1927.86,-1772.38,-1927.34,-1772.34,-1926.82,-1772.34ZM-1918.63,-1795.65C-1918.72,-1796.16,-1918.86,-1796.65,-1919.05,-1797.13C-1919.24,-1797.6,-1919.48,-1798.05,-1919.76,-1798.48C-1920.04,-1798.91,-1920.37,-1799.3,-1920.73,-1799.67C-1921.09,-1800.03,-1921.49,-1800.35,-1921.91,-1800.63C-1922.12,-1800.78,-1922.35,-1800.91,-1922.59,-1801C-1922.82,-1801.1,-1923.07,-1801.17,-1923.33,-1801.2C-1923.58,-1801.24,-1923.84,-1801.25,-1924.1,-1801.22C-1924.35,-1801.2,-1924.6,-1801.14,-1924.85,-1801.06C-1925.41,-1800.84,-1925.94,-1800.52,-1926.4,-1800.12C-1926.86,-1799.72,-1927.25,-1799.24,-1927.55,-1798.71C-1927.85,-1798.18,-1928.06,-1797.6,-1928.16,-1797C-1928.27,-1796.4,-1928.27,-1795.78,-1928.16,-1795.18C-1928.14,-1795.06,-1928.11,-1794.94,-1928.05,-1794.82C-1928,-1794.71,-1927.92,-1794.61,-1927.84,-1794.52C-1927.75,-1794.43,-1927.65,-1794.35,-1927.54,-1794.29C-1927.43,-1794.24,-1927.31,-1794.2,-1927.18,-1794.18C-1926.79,-1794.08,-1926.41,-1793.98,-1926.03,-1793.87C-1925.64,-1793.76,-1925.26,-1793.64,-1924.88,-1793.51C-1924.5,-1793.39,-1924.13,-1793.26,-1923.75,-1793.12C-1923.38,-1792.98,-1923.01,-1792.84,-1922.64,-1792.68C-1920.41,-1791.66,-1918.63,-1793.87,-1918.63,-1795.66Z" transform="translate(1945.23,1810.14)"/></g><g transform="translate(-1892.52,-1749.86) translate(-18.2829,-18.5147)"><path id="Trazado_38528" data-name="Trazado 38528" d="M-1820.1,-1729.49C-1820.13,-1728.18,-1820.28,-1726.87,-1820.55,-1725.58C-1820.82,-1724.29,-1821.21,-1723.02,-1821.71,-1721.8C-1822.21,-1720.59,-1822.82,-1719.41,-1823.53,-1718.31C-1824.24,-1717.2,-1825.05,-1716.16,-1825.95,-1715.19C-1826.43,-1714.69,-1826.96,-1714.24,-1827.52,-1713.84C-1828.09,-1713.44,-1828.7,-1713.09,-1829.33,-1712.81C-1829.96,-1712.53,-1830.62,-1712.32,-1831.3,-1712.17C-1831.98,-1712.02,-1832.67,-1711.93,-1833.36,-1711.92C-1835.41,-1711.8,-1837.46,-1711.64,-1839.51,-1711.54C-1839.88,-1711.53,-1840.25,-1711.55,-1840.62,-1711.58C-1840.98,-1711.62,-1841.35,-1711.68,-1841.71,-1711.76C-1842.07,-1711.84,-1842.43,-1711.95,-1842.77,-1712.07C-1843.12,-1712.2,-1843.46,-1712.34,-1843.79,-1712.51C-1845.49,-1713.27,-1847.25,-1713.89,-1848.95,-1714.67C-1849.14,-1714.74,-1849.33,-1714.83,-1849.51,-1714.92C-1849.7,-1715.02,-1849.87,-1715.12,-1850.05,-1715.24C-1850.22,-1715.35,-1850.38,-1715.48,-1850.54,-1715.61C-1850.7,-1715.74,-1850.85,-1715.89,-1850.99,-1716.03C-1851.27,-1716.37,-1851.54,-1716.71,-1851.8,-1717.05C-1852.07,-1717.4,-1852.32,-1717.75,-1852.57,-1718.1C-1852.82,-1718.46,-1853.06,-1718.82,-1853.29,-1719.18C-1853.53,-1719.55,-1853.75,-1719.92,-1853.97,-1720.29C-1854.1,-1720.57,-1854.23,-1720.84,-1854.35,-1721.12C-1854.46,-1721.4,-1854.58,-1721.68,-1854.68,-1721.96C-1854.78,-1722.25,-1854.88,-1722.54,-1854.97,-1722.83C-1855.06,-1723.12,-1855.14,-1723.41,-1855.21,-1723.7C-1855.59,-1724.86,-1855.94,-1726.03,-1856.24,-1727.22C-1857.16,-1730.81,-1856.44,-1734.25,-1855.08,-1737.57C-1854.73,-1738.38,-1854.32,-1739.17,-1853.87,-1739.93C-1853.42,-1740.7,-1852.93,-1741.43,-1852.39,-1742.14C-1851.86,-1742.84,-1851.28,-1743.52,-1850.66,-1744.15C-1850.05,-1744.79,-1849.39,-1745.39,-1848.71,-1745.95C-1848.21,-1746.34,-1847.69,-1746.69,-1847.14,-1746.99C-1846.6,-1747.3,-1846.03,-1747.56,-1845.44,-1747.77C-1844.85,-1747.99,-1844.24,-1748.15,-1843.63,-1748.27C-1843.01,-1748.39,-1842.39,-1748.46,-1841.76,-1748.48C-1837.51,-1748.88,-1833.46,-1747.82,-1829.39,-1746.88C-1829.06,-1746.78,-1828.75,-1746.66,-1828.44,-1746.5C-1828.14,-1746.35,-1827.85,-1746.16,-1827.59,-1745.95C-1827.32,-1745.74,-1827.07,-1745.51,-1826.85,-1745.25C-1826.63,-1744.99,-1826.43,-1744.72,-1826.26,-1744.42C-1825.74,-1743.7,-1825.25,-1742.97,-1824.77,-1742.23C-1824.3,-1741.48,-1823.84,-1740.72,-1823.42,-1739.95C-1822.99,-1739.18,-1822.58,-1738.39,-1822.2,-1737.59C-1821.82,-1736.8,-1821.46,-1735.99,-1821.13,-1735.17C-1820.94,-1734.72,-1820.77,-1734.27,-1820.63,-1733.8C-1820.49,-1733.34,-1820.38,-1732.87,-1820.29,-1732.39C-1820.21,-1731.91,-1820.15,-1731.43,-1820.12,-1730.95C-1820.08,-1730.46,-1820.08,-1729.98,-1820.1,-1729.49ZM-1829.55,-1715.73C-1829.38,-1715.85,-1829.22,-1715.97,-1829.05,-1716.09C-1828.89,-1716.22,-1828.72,-1716.34,-1828.57,-1716.48C-1828.41,-1716.61,-1828.25,-1716.74,-1828.09,-1716.87C-1827.94,-1717.01,-1827.79,-1717.15,-1827.64,-1717.29C-1827.1,-1717.92,-1826.61,-1718.57,-1826.15,-1719.25C-1825.69,-1719.93,-1825.27,-1720.63,-1824.89,-1721.36C-1824.51,-1722.09,-1824.17,-1722.84,-1823.88,-1723.6C-1823.58,-1724.37,-1823.33,-1725.15,-1823.13,-1725.94C-1822.94,-1726.63,-1822.81,-1727.32,-1822.74,-1728.03C-1822.67,-1728.73,-1822.66,-1729.44,-1822.7,-1730.14C-1822.74,-1730.85,-1822.84,-1731.55,-1823,-1732.24C-1823.16,-1732.93,-1823.37,-1733.6,-1823.63,-1734.26C-1823.96,-1735.02,-1824.31,-1735.78,-1824.68,-1736.53C-1825.05,-1737.28,-1825.45,-1738.01,-1825.86,-1738.74C-1826.27,-1739.47,-1826.7,-1740.18,-1827.14,-1740.88C-1827.59,-1741.59,-1828.06,-1742.28,-1828.55,-1742.96C-1828.67,-1743.12,-1828.8,-1743.28,-1828.95,-1743.42C-1829.1,-1743.57,-1829.26,-1743.7,-1829.43,-1743.82C-1829.59,-1743.93,-1829.77,-1744.04,-1829.96,-1744.12C-1830.15,-1744.21,-1830.34,-1744.28,-1830.54,-1744.34C-1834.07,-1745.28,-1837.62,-1746.19,-1841.35,-1745.86C-1841.88,-1745.85,-1842.41,-1745.8,-1842.93,-1745.7C-1843.45,-1745.6,-1843.96,-1745.46,-1844.46,-1745.27C-1844.95,-1745.09,-1845.44,-1744.87,-1845.9,-1744.61C-1846.36,-1744.35,-1846.79,-1744.05,-1847.21,-1743.71C-1847.72,-1743.28,-1848.22,-1742.82,-1848.69,-1742.33C-1849.16,-1741.85,-1849.61,-1741.35,-1850.04,-1740.82C-1850.47,-1740.3,-1850.87,-1739.75,-1851.24,-1739.19C-1851.62,-1738.63,-1851.97,-1738.05,-1852.29,-1737.46C-1852.85,-1736.46,-1853.29,-1735.4,-1853.6,-1734.29C-1853.91,-1733.19,-1854.08,-1732.05,-1854.1,-1730.9C-1854.13,-1729.76,-1854.02,-1728.61,-1853.77,-1727.49C-1853.52,-1726.37,-1853.13,-1725.29,-1852.61,-1724.26C-1852.28,-1724.65,-1852,-1724.98,-1851.71,-1725.3C-1851.45,-1725.63,-1851.18,-1725.95,-1850.91,-1726.26C-1850.63,-1726.57,-1850.36,-1726.88,-1850.07,-1727.19C-1849.79,-1727.49,-1849.5,-1727.79,-1849.2,-1728.08C-1848.91,-1728.38,-1848.61,-1728.67,-1848.3,-1728.95C-1847.96,-1729.21,-1847.61,-1729.47,-1847.25,-1729.71C-1846.9,-1729.96,-1846.54,-1730.2,-1846.18,-1730.43C-1845.81,-1730.67,-1845.45,-1730.9,-1845.08,-1731.12C-1844.7,-1731.34,-1844.33,-1731.55,-1843.95,-1731.76C-1843.45,-1732.06,-1842.77,-1732.28,-1842.96,-1732.99C-1843.37,-1734.62,-1842.84,-1736.19,-1842.78,-1737.78C-1842.78,-1738.43,-1842.65,-1739.06,-1842.41,-1739.66C-1842.16,-1740.25,-1841.8,-1740.79,-1841.35,-1741.25C-1840.89,-1741.7,-1840.35,-1742.07,-1839.76,-1742.32C-1839.17,-1742.57,-1838.53,-1742.7,-1837.89,-1742.71C-1837.51,-1742.77,-1837.12,-1742.79,-1836.74,-1742.77C-1836.35,-1742.74,-1835.97,-1742.68,-1835.6,-1742.57C-1835.23,-1742.46,-1834.87,-1742.31,-1834.54,-1742.13C-1834.2,-1741.94,-1833.88,-1741.72,-1833.59,-1741.47C-1833.52,-1741.41,-1833.44,-1741.35,-1833.36,-1741.3C-1833.28,-1741.24,-1833.2,-1741.19,-1833.11,-1741.14C-1833.03,-1741.1,-1832.94,-1741.05,-1832.85,-1741.01C-1832.77,-1740.97,-1832.68,-1740.94,-1832.59,-1740.9C-1828.9,-1739.22,-1828.77,-1734.77,-1830.12,-1732.09C-1830.23,-1731.94,-1830.35,-1731.79,-1830.48,-1731.65C-1830.6,-1731.51,-1830.74,-1731.38,-1830.88,-1731.26C-1831.02,-1731.14,-1831.18,-1731.02,-1831.33,-1730.92C-1831.49,-1730.82,-1831.65,-1730.72,-1831.82,-1730.64C-1832.12,-1730.44,-1832.57,-1730.5,-1832.94,-1730.39C-1833.61,-1730.19,-1833.8,-1729.84,-1833.42,-1729.24C-1833.31,-1729.07,-1833.19,-1728.9,-1833.07,-1728.73C-1832.95,-1728.56,-1832.82,-1728.39,-1832.69,-1728.23C-1832.56,-1728.07,-1832.43,-1727.91,-1832.29,-1727.75C-1832.15,-1727.6,-1832.01,-1727.44,-1831.86,-1727.3C-1831.45,-1726.89,-1831.08,-1726.44,-1830.76,-1725.96C-1830.44,-1725.48,-1830.17,-1724.97,-1829.96,-1724.43C-1829.75,-1723.89,-1829.59,-1723.33,-1829.5,-1722.76C-1829.4,-1722.19,-1829.37,-1721.61,-1829.4,-1721.03C-1829.47,-1719.45,-1829.5,-1717.86,-1829.55,-1715.73ZM-1831.96,-1720.32C-1831.92,-1720.76,-1831.92,-1721.2,-1831.96,-1721.64C-1832.01,-1722.07,-1832.1,-1722.5,-1832.24,-1722.92C-1832.38,-1723.34,-1832.56,-1723.74,-1832.78,-1724.12C-1833,-1724.5,-1833.27,-1724.86,-1833.56,-1725.18C-1833.84,-1725.45,-1834.1,-1725.73,-1834.36,-1726.02C-1834.62,-1726.31,-1834.86,-1726.6,-1835.1,-1726.91C-1835.33,-1727.22,-1835.55,-1727.53,-1835.76,-1727.86C-1835.98,-1728.18,-1836.18,-1728.51,-1836.36,-1728.84C-1836.49,-1729.1,-1836.67,-1729.34,-1836.88,-1729.54C-1837.08,-1729.74,-1837.33,-1729.91,-1837.59,-1730.03C-1837.85,-1730.15,-1838.13,-1730.22,-1838.42,-1730.25C-1838.71,-1730.28,-1839,-1730.26,-1839.28,-1730.19C-1839.68,-1730.15,-1840.08,-1730.09,-1840.48,-1730C-1840.87,-1729.91,-1841.25,-1729.8,-1841.63,-1729.66C-1842.01,-1729.52,-1842.38,-1729.36,-1842.73,-1729.17C-1843.09,-1728.98,-1843.43,-1728.77,-1843.76,-1728.54C-1845.35,-1727.34,-1846.84,-1726.02,-1848.36,-1724.74C-1848.6,-1724.5,-1848.83,-1724.25,-1849.04,-1723.98C-1849.25,-1723.72,-1849.44,-1723.44,-1849.62,-1723.16C-1849.8,-1722.87,-1849.96,-1722.57,-1850.11,-1722.27C-1850.25,-1721.97,-1850.38,-1721.65,-1850.49,-1721.33C-1850.53,-1721.27,-1850.56,-1721.19,-1850.59,-1721.12C-1850.61,-1721.04,-1850.63,-1720.97,-1850.64,-1720.89C-1850.65,-1720.81,-1850.65,-1720.73,-1850.65,-1720.65C-1850.64,-1720.57,-1850.63,-1720.49,-1850.61,-1720.42C-1849.94,-1719.13,-1849.43,-1717.71,-1847.87,-1717.12C-1846.07,-1716.43,-1844.33,-1715.58,-1842.53,-1714.91C-1842.28,-1714.8,-1842.03,-1714.7,-1841.77,-1714.62C-1841.51,-1714.53,-1841.25,-1714.45,-1840.99,-1714.39C-1840.72,-1714.32,-1840.46,-1714.27,-1840.19,-1714.23C-1839.92,-1714.19,-1839.65,-1714.16,-1839.38,-1714.14C-1837.33,-1714.13,-1835.28,-1714.39,-1833.24,-1714.55C-1833.12,-1714.55,-1833.01,-1714.57,-1832.91,-1714.61C-1832.8,-1714.65,-1832.7,-1714.71,-1832.62,-1714.79C-1832.54,-1714.86,-1832.48,-1714.96,-1832.43,-1715.06C-1832.39,-1715.17,-1832.36,-1715.28,-1832.36,-1715.39C-1832.23,-1717.05,-1832.1,-1718.72,-1831.97,-1720.32ZM-1831.96,-1735.39C-1831.93,-1735.67,-1831.93,-1735.96,-1831.98,-1736.25C-1832.03,-1736.53,-1832.11,-1736.81,-1832.23,-1737.07C-1832.35,-1737.33,-1832.51,-1737.58,-1832.69,-1737.8C-1832.88,-1738.02,-1833.09,-1738.22,-1833.33,-1738.38C-1833.54,-1738.52,-1833.76,-1738.67,-1833.97,-1738.8C-1834.19,-1738.94,-1834.4,-1739.08,-1834.62,-1739.21C-1834.84,-1739.34,-1835.06,-1739.47,-1835.29,-1739.59C-1835.51,-1739.72,-1835.74,-1739.84,-1835.96,-1739.96C-1836.37,-1740.19,-1836.82,-1740.32,-1837.29,-1740.34C-1837.75,-1740.36,-1838.22,-1740.26,-1838.64,-1740.07C-1839.06,-1739.87,-1839.43,-1739.58,-1839.72,-1739.21C-1840,-1738.85,-1840.2,-1738.42,-1840.29,-1737.96C-1840.34,-1737.64,-1840.39,-1737.33,-1840.43,-1737.01C-1840.47,-1736.7,-1840.5,-1736.38,-1840.53,-1736.06C-1840.55,-1735.74,-1840.57,-1735.42,-1840.58,-1735.11C-1840.59,-1734.79,-1840.59,-1734.47,-1840.59,-1734.15C-1840.6,-1733.22,-1840.4,-1733.12,-1839.4,-1733.07C-1838.51,-1733.02,-1837.63,-1732.93,-1836.73,-1732.89C-1836.52,-1732.87,-1836.3,-1732.85,-1836.08,-1732.84C-1835.86,-1732.83,-1835.64,-1732.82,-1835.42,-1732.82C-1835.2,-1732.82,-1834.98,-1732.82,-1834.76,-1732.83C-1834.54,-1732.84,-1834.32,-1732.86,-1834.1,-1732.88C-1832.24,-1733.19,-1831.98,-1733.57,-1831.96,-1735.39Z" transform="translate(1856.65,1748.57)"/></g><g transform="translate(-2025.09,-1777.77) translate(-16.9137,-16.5878)"><path id="Trazado_38529" data-name="Trazado 38529" d="M-2021.84,-1750.78C-2021.86,-1750.78,-2021.87,-1750.78,-2021.89,-1750.78C-2021.91,-1750.78,-2021.92,-1750.78,-2021.94,-1750.78C-2021.95,-1750.78,-2021.97,-1750.78,-2021.99,-1750.78C-2022,-1750.78,-2022.02,-1750.78,-2022.03,-1750.78C-2022.59,-1750.69,-2023.15,-1750.66,-2023.7,-1750.69C-2024.26,-1750.71,-2024.82,-1750.8,-2025.36,-1750.94C-2025.9,-1751.08,-2026.43,-1751.27,-2026.93,-1751.52C-2027.43,-1751.77,-2027.9,-1752.06,-2028.34,-1752.41C-2028.74,-1752.65,-2029.12,-1752.9,-2029.51,-1753.16C-2029.89,-1753.42,-2030.27,-1753.69,-2030.64,-1753.96C-2031.02,-1754.23,-2031.39,-1754.52,-2031.75,-1754.8C-2032.11,-1755.09,-2032.47,-1755.39,-2032.81,-1755.69C-2033.36,-1756.24,-2033.86,-1756.83,-2034.31,-1757.45C-2034.77,-1758.07,-2035.18,-1758.73,-2035.53,-1759.41C-2035.89,-1760.09,-2036.2,-1760.8,-2036.45,-1761.53C-2036.7,-1762.26,-2036.9,-1763.01,-2037.04,-1763.77C-2037.26,-1764.74,-2037.4,-1765.72,-2037.45,-1766.72C-2037.5,-1767.71,-2037.46,-1768.71,-2037.34,-1769.7C-2037.21,-1770.68,-2037,-1771.66,-2036.71,-1772.61C-2036.41,-1773.56,-2036.03,-1774.48,-2035.58,-1775.37C-2033.08,-1780.07,-2028.9,-1782.45,-2023.82,-1783.55C-2022.95,-1783.72,-2022.07,-1783.82,-2021.19,-1783.85C-2020.3,-1783.87,-2019.42,-1783.82,-2018.55,-1783.69C-2017.67,-1783.57,-2016.81,-1783.37,-2015.97,-1783.1C-2015.13,-1782.83,-2014.31,-1782.5,-2013.53,-1782.09C-2012.48,-1781.61,-2011.37,-1781.28,-2010.31,-1780.84C-2007.74,-1779.76,-2006.45,-1777.55,-2005.4,-1775.16C-2005.24,-1774.81,-2005.25,-1774.39,-2005.09,-1774.05C-2002.63,-1768.82,-2003.71,-1763.63,-2005.36,-1758.49C-2006.04,-1756.38,-2007.86,-1755.1,-2009.57,-1753.84C-2010.25,-1753.36,-2010.97,-1752.93,-2011.71,-1752.55C-2012.46,-1752.17,-2013.23,-1751.86,-2014.03,-1751.6C-2014.82,-1751.34,-2015.63,-1751.14,-2016.46,-1751.01C-2017.28,-1750.87,-2018.11,-1750.8,-2018.95,-1750.8C-2019.91,-1750.76,-2020.88,-1750.79,-2021.84,-1750.79ZM-2029.24,-1756.97C-2028.53,-1761,-2028.07,-1765.09,-2024.85,-1768.09C-2025.3,-1768.61,-2025.64,-1768.98,-2025.95,-1769.38C-2028.68,-1772.82,-2028.35,-1775.38,-2024.84,-1778.01C-2024.78,-1778.06,-2024.72,-1778.11,-2024.65,-1778.16C-2024.58,-1778.2,-2024.52,-1778.25,-2024.45,-1778.29C-2024.38,-1778.33,-2024.31,-1778.37,-2024.24,-1778.41C-2024.17,-1778.45,-2024.1,-1778.48,-2024.03,-1778.52C-2022.78,-1779.09,-2021.55,-1779.65,-2020.27,-1778.53C-2020.17,-1778.47,-2020.07,-1778.42,-2019.97,-1778.37C-2019.87,-1778.33,-2019.76,-1778.29,-2019.65,-1778.25C-2019.55,-1778.22,-2019.44,-1778.19,-2019.33,-1778.17C-2019.22,-1778.15,-2019.11,-1778.13,-2019,-1778.12C-2018.31,-1778,-2017.66,-1777.74,-2017.09,-1777.36C-2016.51,-1776.97,-2016.03,-1776.46,-2015.66,-1775.87C-2015.3,-1775.28,-2015.06,-1774.62,-2014.97,-1773.94C-2014.89,-1773.25,-2014.94,-1772.55,-2015.15,-1771.89C-2015.27,-1771.41,-2015.39,-1770.93,-2015.47,-1770.63L-2006.8,-1764.82C-2006.72,-1764.96,-2006.51,-1765.16,-2006.48,-1765.39C-2006.24,-1767.63,-2006.04,-1769.87,-2007.11,-1772.01C-2007.46,-1772.69,-2007.6,-1773.47,-2007.91,-1774.17C-2008.72,-1776.03,-2009.74,-1777.74,-2011.74,-1778.55C-2013.71,-1779.34,-2015.67,-1780.17,-2017.69,-1780.79C-2017.98,-1780.88,-2018.27,-1780.96,-2018.57,-1781.02C-2018.87,-1781.08,-2019.17,-1781.13,-2019.47,-1781.17C-2019.77,-1781.2,-2020.08,-1781.23,-2020.38,-1781.24C-2020.69,-1781.25,-2020.99,-1781.24,-2021.3,-1781.23C-2021.89,-1781.19,-2022.48,-1781.12,-2023.07,-1781.02C-2023.65,-1780.92,-2024.23,-1780.78,-2024.8,-1780.61C-2025.37,-1780.44,-2025.93,-1780.23,-2026.47,-1780C-2027.02,-1779.76,-2027.55,-1779.49,-2028.06,-1779.2C-2028.89,-1778.77,-2029.67,-1778.25,-2030.38,-1777.64C-2031.1,-1777.04,-2031.74,-1776.36,-2032.3,-1775.61C-2032.86,-1774.87,-2033.33,-1774.06,-2033.71,-1773.2C-2034.08,-1772.35,-2034.36,-1771.46,-2034.54,-1770.54C-2034.78,-1769.52,-2034.91,-1768.48,-2034.92,-1767.44C-2034.93,-1766.4,-2034.84,-1765.35,-2034.63,-1764.33C-2034.42,-1763.31,-2034.1,-1762.31,-2033.68,-1761.35C-2033.25,-1760.4,-2032.73,-1759.49,-2032.11,-1758.65C-2031.94,-1758.42,-2031.75,-1758.21,-2031.54,-1758.02C-2031.33,-1757.83,-2031.1,-1757.66,-2030.85,-1757.51C-2030.6,-1757.37,-2030.34,-1757.25,-2030.07,-1757.16C-2029.8,-1757.07,-2029.52,-1757.01,-2029.24,-1756.97ZM-2021.39,-1753.35L-2021.38,-1753.21C-2020.04,-1753.37,-2018.71,-1753.62,-2017.37,-1753.67C-2014.44,-1753.79,-2012.14,-1755.23,-2009.92,-1756.95C-2008.41,-1758.12,-2007.56,-1759.37,-2008.58,-1761.35C-2008.95,-1762.08,-2009.05,-1762.94,-2009.75,-1763.51C-2010.26,-1763.95,-2010.79,-1764.37,-2011.33,-1764.77C-2011.87,-1765.18,-2012.43,-1765.56,-2013,-1765.92C-2013.57,-1766.28,-2014.15,-1766.62,-2014.75,-1766.94C-2015.34,-1767.26,-2015.95,-1767.55,-2016.57,-1767.82C-2016.71,-1767.89,-2016.86,-1767.94,-2017.02,-1767.98C-2017.17,-1768.02,-2017.32,-1768.05,-2017.48,-1768.06C-2017.64,-1768.08,-2017.8,-1768.09,-2017.95,-1768.09C-2018.11,-1768.08,-2018.27,-1768.07,-2018.43,-1768.04C-2018.93,-1767.94,-2019.42,-1767.8,-2019.9,-1767.61C-2020.38,-1767.42,-2020.84,-1767.19,-2021.28,-1766.92C-2021.72,-1766.65,-2022.13,-1766.34,-2022.51,-1766C-2022.89,-1765.66,-2023.25,-1765.28,-2023.56,-1764.88C-2024.03,-1764.27,-2024.45,-1763.61,-2024.8,-1762.93C-2025.15,-1762.24,-2025.44,-1761.52,-2025.66,-1760.79C-2025.88,-1760.05,-2026.04,-1759.29,-2026.12,-1758.52C-2026.21,-1757.76,-2026.23,-1756.98,-2026.17,-1756.21C-2026.21,-1755.83,-2026.15,-1755.45,-2026.02,-1755.09C-2025.89,-1754.73,-2025.68,-1754.4,-2025.41,-1754.13C-2025.14,-1753.85,-2024.81,-1753.64,-2024.45,-1753.51C-2024.09,-1753.38,-2023.71,-1753.32,-2023.32,-1753.35C-2022.68,-1753.33,-2022.04,-1753.35,-2021.39,-1753.35ZM-2021.85,-1776.31C-2021.97,-1776.29,-2022.1,-1776.26,-2022.22,-1776.24C-2022.35,-1776.21,-2022.47,-1776.18,-2022.6,-1776.15C-2022.72,-1776.12,-2022.84,-1776.09,-2022.97,-1776.06C-2023.09,-1776.03,-2023.21,-1775.99,-2023.34,-1775.96C-2023.74,-1775.87,-2024.12,-1775.68,-2024.44,-1775.4C-2024.75,-1775.13,-2024.99,-1774.77,-2025.13,-1774.38C-2025.27,-1773.99,-2025.31,-1773.56,-2025.24,-1773.15C-2025.17,-1772.74,-2025,-1772.35,-2024.74,-1772.03C-2024.57,-1771.75,-2024.37,-1771.5,-2024.2,-1771.23C-2024.11,-1771.06,-2023.99,-1770.91,-2023.84,-1770.78C-2023.7,-1770.66,-2023.53,-1770.55,-2023.35,-1770.48C-2023.18,-1770.41,-2022.99,-1770.37,-2022.79,-1770.36C-2022.6,-1770.35,-2022.41,-1770.37,-2022.23,-1770.43C-2022.02,-1770.46,-2021.82,-1770.5,-2021.61,-1770.53C-2021.41,-1770.56,-2021.2,-1770.59,-2021,-1770.62C-2020.79,-1770.65,-2020.59,-1770.67,-2020.38,-1770.69C-2020.18,-1770.72,-2019.97,-1770.73,-2019.76,-1770.75C-2019.52,-1770.78,-2019.29,-1770.84,-2019.07,-1770.93C-2018.85,-1771.02,-2018.64,-1771.15,-2018.46,-1771.31C-2018.28,-1771.46,-2018.12,-1771.65,-2017.99,-1771.85C-2017.86,-1772.06,-2017.77,-1772.28,-2017.71,-1772.51C-2017.61,-1772.72,-2017.56,-1772.94,-2017.54,-1773.17C-2017.52,-1773.39,-2017.54,-1773.62,-2017.6,-1773.84C-2017.65,-1774.06,-2017.75,-1774.27,-2017.87,-1774.46C-2018,-1774.65,-2018.15,-1774.81,-2018.33,-1774.95C-2018.57,-1775.16,-2018.83,-1775.35,-2019.11,-1775.51C-2019.38,-1775.68,-2019.67,-1775.82,-2019.97,-1775.93C-2020.27,-1776.05,-2020.58,-1776.14,-2020.89,-1776.2C-2021.2,-1776.26,-2021.52,-1776.3,-2021.84,-1776.31Z" transform="translate(2037.47,1783.85)"/></g></g></g><path fill="#f2efe7" stroke="none" d="M18.371,0C18.371,3.42029,8.37792,-1.13666,5.67012,2.18648C1.91532,6.79458,8.30186,14.8329,3.67012,11.1865C2.19045,10.0216,1.7909,7.6594,0,7.18648C-3.19767,6.34207,-7.90921,7.88962,-10.3299,7.18648C-15.878,5.57491,-18.3778,3.10276,-18.371,0C-18.3532,-8.16297,-10.146,-14.7804,0,-14.7804C10.146,-14.7804,18.371,-8.16299,18.371,0Z" transform="translate(149.33,245.814)"/><g id="Grupo_37956" data-name="Grupo 37956" transform="translate(72.4599,68.1981)"><path id="Trazado_38458" data-name="Trazado 38458" d="M448.14,300.284C448.356,299.314,448.574,298.344,448.786,297.373C448.802,297.257,448.82,297.142,448.84,297.027C448.861,296.911,448.884,296.797,448.909,296.683C448.934,296.568,448.961,296.455,448.991,296.341C449.02,296.228,449.052,296.116,449.086,296.004C449.144,295.81,449.238,295.628,449.362,295.468C449.486,295.308,449.638,295.172,449.812,295.068C449.985,294.963,450.176,294.891,450.376,294.855C450.575,294.82,450.779,294.821,450.978,294.86C451.181,294.876,451.379,294.936,451.557,295.036C451.735,295.135,451.889,295.273,452.009,295.438C452.128,295.604,452.21,295.793,452.249,295.993C452.289,296.193,452.284,296.4,452.235,296.598C452.071,298.057,451.808,299.506,451.546,300.953C451.405,301.733,451.183,302.498,450.94,303.511C451.433,302.965,451.689,302.458,452.085,302.299C452.214,302.238,452.348,302.189,452.486,302.153C452.624,302.117,452.765,302.094,452.907,302.085C453.049,302.076,453.192,302.08,453.333,302.097C453.475,302.115,453.614,302.145,453.75,302.189C453.869,302.266,453.978,302.357,454.075,302.46C454.172,302.564,454.256,302.678,454.325,302.802C454.394,302.925,454.449,303.056,454.487,303.193C454.525,303.329,454.546,303.469,454.55,303.611C454.197,305.711,453.724,307.805,453.18,309.869C453.131,310.067,453.043,310.254,452.921,310.418C452.799,310.582,452.646,310.72,452.47,310.824C452.295,310.929,452.1,310.997,451.898,311.025C451.696,311.054,451.49,311.042,451.292,310.99C451.09,310.964,450.895,310.897,450.721,310.792C450.546,310.687,450.395,310.547,450.278,310.381C450.16,310.214,450.079,310.025,450.038,309.826C449.998,309.626,449.999,309.42,450.043,309.221C450.122,308.171,450.352,307.131,450.563,305.793C449.681,306.805,448.827,307.421,447.81,306.761C446.435,305.869,447.134,304.489,447.055,303.199C446.655,303.989,446.217,304.761,445.873,305.575C445.563,306.28,445.206,306.962,444.805,307.619C444.403,308.276,443.958,308.905,443.472,309.502C442.987,310.099,442.461,310.663,441.9,311.189C441.339,311.716,440.743,312.204,440.116,312.651C439.29,313.25,438.444,313.82,437.579,314.361C436.714,314.901,435.831,315.412,434.931,315.891C434.03,316.37,433.114,316.819,432.182,317.235C431.251,317.651,430.306,318.034,429.348,318.385C429.022,318.51,428.7,318.645,428.383,318.792C428.065,318.938,427.753,319.095,427.446,319.262C427.14,319.429,426.839,319.606,426.544,319.794C426.249,319.981,425.961,320.178,425.679,320.385C425.158,320.781,424.695,321.248,424.303,321.773C423.911,322.298,423.595,322.874,423.363,323.487C423.131,324.099,422.986,324.74,422.932,325.393C422.878,326.045,422.915,326.702,423.043,327.344C423.349,329.703,424.143,331.999,424.428,334.358C424.8,337.158,425.258,339.946,425.801,342.718C426.343,345.49,426.971,348.245,427.682,350.979C428.393,353.713,429.188,356.424,430.065,359.11C430.942,361.795,431.901,364.452,432.94,367.079C433.54,368.647,433.548,368.693,435.221,368.457C435.533,368.411,435.844,368.36,436.154,368.305C436.464,368.249,436.774,368.189,437.082,368.125C437.391,368.061,437.698,367.992,438.005,367.919C438.311,367.846,438.617,367.768,438.921,367.686C440.488,367.274,440.463,367.24,440.016,365.617C438.772,361.107,437.46,356.617,436.339,352.074C435.699,349.484,435.398,346.812,434.908,344.182C434.701,343.068,434.346,341.982,434.156,340.866C433.811,338.831,433.484,336.788,433.256,334.737C433.069,333.081,433.184,331.38,432.895,329.747C432.322,326.507,433.028,324.658,436.422,322.655C436.765,322.482,437.113,322.319,437.465,322.167C437.817,322.014,438.174,321.872,438.534,321.74C438.895,321.608,439.259,321.486,439.627,321.376C439.995,321.265,440.366,321.165,440.739,321.076C441.951,320.705,443.22,320.521,444.439,320.184C445.5,319.939,446.522,319.549,447.477,319.024C448.431,318.5,449.309,317.846,450.085,317.082C450.861,316.318,451.528,315.45,452.066,314.504C452.605,313.558,453.011,312.541,453.272,311.484C453.322,311.291,453.378,311.1,453.44,310.91C453.501,310.721,453.569,310.533,453.641,310.348C453.714,310.162,453.792,309.979,453.876,309.798C453.96,309.617,454.049,309.439,454.143,309.263C454.238,309.083,454.366,308.922,454.521,308.79C454.676,308.658,454.855,308.556,455.049,308.492C455.242,308.427,455.446,308.4,455.649,308.412C455.853,308.425,456.052,308.476,456.236,308.563C456.409,308.632,456.568,308.732,456.704,308.86C456.84,308.987,456.951,309.139,457.03,309.308C457.11,309.476,457.158,309.658,457.17,309.844C457.183,310.03,457.16,310.216,457.104,310.394C456.055,316.837,451.585,321.994,445.839,323.468C443.192,324.147,440.539,324.788,437.883,325.452C437.653,325.499,437.433,325.585,437.232,325.706C437.03,325.827,436.851,325.98,436.701,326.161C436.55,326.341,436.432,326.546,436.35,326.765C436.267,326.985,436.223,327.217,436.218,327.452C436.438,330.719,436.689,333.985,436.972,337.252C437.003,337.441,437.036,337.63,437.073,337.819C437.11,338.007,437.15,338.194,437.194,338.381C437.237,338.568,437.283,338.754,437.333,338.94C437.382,339.125,437.435,339.309,437.491,339.493C437.815,339.325,438.124,339.132,438.417,338.915C438.71,338.698,438.985,338.457,439.24,338.196C439.494,337.935,439.727,337.654,439.937,337.356C440.146,337.058,440.332,336.743,440.491,336.415C441.621,334.368,442.663,332.269,443.642,330.145C443.699,329.972,443.75,329.797,443.794,329.62C443.838,329.443,443.875,329.264,443.905,329.084C443.935,328.905,443.959,328.724,443.975,328.542C443.991,328.36,444.001,328.178,444.003,327.996C444.116,326.979,444.494,326.121,445.58,325.939C445.796,325.895,446.019,325.898,446.235,325.945C446.451,325.993,446.654,326.085,446.832,326.216C447.009,326.347,447.158,326.513,447.268,326.705C447.377,326.896,447.446,327.108,447.469,327.328C447.719,328.374,448.649,328.342,449.377,328.495C451.734,328.988,454.123,329.324,456.477,329.841C459.277,330.455,462.077,331.092,464.815,331.922C465.161,332.045,465.503,332.179,465.841,332.324C466.178,332.468,466.511,332.622,466.84,332.787C467.168,332.952,467.491,333.126,467.809,333.31C468.126,333.495,468.438,333.689,468.744,333.892C469.156,334.15,469.542,334.445,469.899,334.775C470.255,335.105,470.58,335.467,470.869,335.857C471.158,336.248,471.41,336.664,471.622,337.101C471.833,337.538,472.003,337.994,472.13,338.463C472.497,339.68,472.826,340.908,473.116,342.146C473.405,343.383,473.656,344.63,473.867,345.883C474.079,347.137,474.25,348.396,474.382,349.661C474.514,350.925,474.606,352.193,474.658,353.463C474.889,357.875,475.138,362.302,475.009,366.711C474.789,374.255,474.868,381.83,473.009,389.252C472.554,391.069,471.987,392.855,471.313,394.602C470.639,396.349,469.857,398.053,468.974,399.704C468.09,401.356,467.106,402.951,466.026,404.481C464.947,406.011,463.774,407.474,462.515,408.86C462.36,409.012,462.202,409.161,462.041,409.307C461.881,409.453,461.717,409.596,461.551,409.735C461.385,409.875,461.216,410.011,461.044,410.144C460.873,410.277,460.699,410.407,460.522,410.533C460.368,410.634,460.217,410.738,460.069,410.846C459.921,410.955,459.775,411.067,459.633,411.183C459.49,411.299,459.351,411.418,459.214,411.541C459.078,411.664,458.945,411.791,458.815,411.921C455.961,415.488,452.009,417.042,447.729,417.804C447.134,417.888,446.538,417.96,445.941,418.021C445.344,418.082,444.745,418.131,444.146,418.169C443.546,418.206,442.947,418.232,442.346,418.246C441.746,418.261,441.145,418.263,440.545,418.254C440.158,418.263,439.772,418.219,439.397,418.123C439.022,418.028,438.661,417.881,438.326,417.688C437.991,417.495,437.683,417.257,437.412,416.981C437.141,416.705,436.909,416.393,436.722,416.054C436.511,415.713,436.307,415.367,436.099,415.023C435.01,413.216,435.01,413.216,432.306,413.852C432.459,413.955,432.611,414.06,432.761,414.168C432.91,414.276,433.058,414.387,433.204,414.5C433.35,414.613,433.494,414.728,433.636,414.846C433.778,414.964,433.918,415.084,434.056,415.207C434.364,415.514,434.667,415.825,434.967,416.139C435.267,416.454,435.563,416.772,435.854,417.094C436.146,417.416,436.434,417.742,436.718,418.071C437.001,418.4,437.281,418.733,437.556,419.069C437.706,419.268,437.847,419.475,437.978,419.687C438.109,419.899,438.23,420.117,438.342,420.34C438.453,420.564,438.554,420.792,438.645,421.024C438.736,421.257,438.816,421.493,438.885,421.733C439.06,422.306,439.018,423.41,438.698,423.584C438.417,423.739,438.13,423.882,437.836,424.013C437.543,424.144,437.245,424.263,436.942,424.368C436.639,424.474,436.331,424.567,436.021,424.647C435.71,424.727,435.396,424.794,435.079,424.847C434.537,424.932,433.83,424.305,433.271,423.9C431.761,422.8,430.314,421.618,428.79,420.544C428.65,420.464,428.503,420.398,428.351,420.347C428.199,420.295,428.042,420.259,427.882,420.238C427.723,420.217,427.562,420.211,427.401,420.221C427.241,420.231,427.082,420.257,426.926,420.298C427.61,421.32,428.32,422.327,428.969,423.371C429.071,423.522,429.169,423.675,429.261,423.832C429.353,423.989,429.44,424.149,429.522,424.311C429.604,424.474,429.68,424.639,429.751,424.807C429.823,424.974,429.888,425.144,429.948,425.316C430.015,425.508,430.045,425.712,430.036,425.915C430.027,426.119,429.979,426.319,429.894,426.504C429.809,426.689,429.69,426.857,429.542,426.997C429.395,427.137,429.221,427.248,429.032,427.323C428.85,427.414,428.653,427.469,428.451,427.484C428.248,427.5,428.045,427.476,427.851,427.414C427.658,427.352,427.479,427.253,427.323,427.122C427.168,426.992,427.039,426.832,426.944,426.653C425.817,425.027,424.708,423.388,423.6,421.753C423.566,421.696,423.532,421.639,423.499,421.582C423.466,421.524,423.434,421.466,423.402,421.408C423.371,421.349,423.34,421.291,423.31,421.232C423.28,421.172,423.251,421.113,423.222,421.053L422.759,421.364C422.991,421.945,423.237,422.522,423.451,423.11C423.675,423.65,423.858,424.206,424,424.773C424.142,425.341,424.242,425.917,424.299,426.499C424.357,427.081,424.371,427.666,424.343,428.25C424.314,428.834,424.243,429.415,424.129,429.989C424.099,430.119,424.065,430.249,424.028,430.377C423.99,430.505,423.95,430.633,423.906,430.759C423.862,430.885,423.814,431.01,423.763,431.133C423.712,431.257,423.658,431.379,423.601,431.5C423.071,432.615,422.422,433.7,421.033,433.77C419.561,433.844,418.759,432.826,418.142,431.643C417.971,431.356,417.805,431.066,417.644,430.773C417.483,430.48,417.327,430.185,417.176,429.887C417.024,429.589,416.878,429.289,416.736,428.986C416.595,428.683,416.458,428.378,416.327,428.071C415.859,426.771,415.168,426.758,414.033,427.094C413.586,427.232,413.137,427.363,412.686,427.485C412.235,427.608,411.782,427.723,411.327,427.83C410.871,427.938,410.415,428.037,409.956,428.128C409.497,428.22,409.037,428.303,408.576,428.379C404.95,428.925,401.621,428.312,399.106,425.329C399.024,425.231,398.928,425.145,398.822,425.073C398.716,425.001,398.601,424.944,398.479,424.904C398.358,424.864,398.231,424.841,398.103,424.836C397.975,424.831,397.847,424.844,397.723,424.874C396.015,425.007,395.479,424.453,395.378,422.733C395.293,421.28,394.478,420.698,393.206,421.233C392.593,421.5,391.964,421.728,391.323,421.918C390.682,422.108,390.03,422.258,389.371,422.368C388.711,422.478,388.046,422.547,387.378,422.576C386.71,422.604,386.041,422.592,385.375,422.539C384.793,422.516,384.21,422.518,383.628,422.544C383.045,422.571,382.465,422.622,381.887,422.697C381.309,422.772,380.735,422.872,380.165,422.996C379.596,423.12,379.032,423.268,378.475,423.439C378.087,423.538,377.697,423.625,377.303,423.698C376.91,423.771,376.514,423.832,376.117,423.879C375.72,423.926,375.321,423.96,374.922,423.981C374.522,424.001,374.122,424.009,373.722,424.003C370.271,423.943,366.783,424.285,363.445,422.841C362.79,422.59,362.149,422.308,361.522,421.994C360.896,421.68,360.285,421.335,359.692,420.961C359.1,420.587,358.526,420.184,357.973,419.753C357.42,419.323,356.889,418.865,356.381,418.382C356.136,418.157,355.887,417.937,355.634,417.722C355.38,417.507,355.123,417.297,354.861,417.092C354.599,416.887,354.333,416.688,354.064,416.493C353.794,416.299,353.52,416.11,353.243,415.927C352.33,415.253,351.376,414.633,350.443,413.982C350.203,413.775,349.957,413.574,349.706,413.38C349.455,413.186,349.199,413,348.937,412.82C348.676,412.64,348.41,412.468,348.139,412.303C347.868,412.138,347.593,411.98,347.313,411.83C345.048,410.914,343.68,408.954,341.896,407.502C341.596,407.207,341.327,406.882,341.093,406.532C340.86,406.183,340.662,405.81,340.503,405.421C340.345,405.031,340.227,404.626,340.15,404.213C340.074,403.799,340.04,403.379,340.049,402.958C339.98,402.225,339.953,401.489,339.968,400.753C339.983,400.017,340.04,399.282,340.139,398.552C340.238,397.823,340.378,397.1,340.56,396.386C340.742,395.673,340.964,394.97,341.226,394.282C341.936,392.459,342.67,390.646,343.429,388.843C344.187,387.04,344.97,385.247,345.776,383.465C346.583,381.683,347.413,379.912,348.267,378.152C349.121,376.392,349.999,374.644,350.9,372.908C354.954,365.37,358.791,357.716,362.826,350.168C363.522,348.832,364.278,347.528,365.092,346.26C365.906,344.992,366.777,343.761,367.702,342.572C368.627,341.383,369.605,340.236,370.634,339.135C371.662,338.034,372.74,336.98,373.864,335.977C374.46,335.439,375.064,334.91,375.675,334.39C376.287,333.869,376.906,333.358,377.532,332.856C378.159,332.354,378.793,331.862,379.434,331.378C380.075,330.895,380.723,330.421,381.378,329.957C383.778,328.309,386.73,327.919,389.544,327.447C394.883,326.552,400.249,325.811,405.619,325.113C405.848,325.119,406.075,325.084,406.291,325.008C406.507,324.932,406.707,324.817,406.881,324.668C407.055,324.52,407.2,324.341,407.309,324.14C407.418,323.939,407.489,323.72,407.519,323.493C407.552,323.364,407.593,323.237,407.64,323.113C407.688,322.988,407.742,322.867,407.803,322.748C407.864,322.63,407.932,322.515,408.006,322.404C408.079,322.294,408.159,322.187,408.245,322.085C408.393,321.903,408.574,321.75,408.779,321.635C408.984,321.521,409.208,321.446,409.441,321.414C409.674,321.383,409.91,321.396,410.138,321.453C410.366,321.509,410.581,321.608,410.772,321.745C411.509,322.267,411.545,322.857,410.797,323.452C410.441,323.701,410.124,324.001,409.855,324.342C409.586,324.682,409.367,325.06,409.207,325.464C409.047,325.867,408.946,326.292,408.908,326.724C408.87,327.157,408.895,327.593,408.983,328.018C409.033,328.349,409.073,328.681,409.103,329.014C409.132,329.347,409.152,329.68,409.161,330.015C409.17,330.349,409.17,330.683,409.158,331.017C409.147,331.351,409.126,331.685,409.094,332.018C408.794,335.418,409.894,338.518,411.194,341.518C411.591,342.351,412.127,343.111,412.78,343.764C413.432,344.416,414.192,344.953,415.025,345.35C415.858,345.746,416.753,345.998,417.671,346.093C418.589,346.189,419.517,346.126,420.414,345.909C421.322,345.692,421.798,345.287,421.677,344.249C421.368,341.597,421.141,338.936,420.867,336.28C420.767,335.28,420.58,334.291,420.513,333.291C420.331,330.557,420.285,327.809,420.013,325.084C419.959,324.45,419.98,323.813,420.077,323.184C420.173,322.556,420.344,321.941,420.585,321.352C420.826,320.764,421.136,320.207,421.509,319.691C421.882,319.176,422.315,318.707,422.798,318.294C423.17,317.933,423.562,317.592,423.971,317.273C424.381,316.954,424.807,316.658,425.249,316.386C425.691,316.114,426.147,315.866,426.616,315.643C427.084,315.421,427.565,315.224,428.055,315.054C428.858,314.768,429.652,314.455,430.433,314.115C431.215,313.775,431.985,313.408,432.742,313.015C433.498,312.622,434.241,312.204,434.969,311.76C435.697,311.316,436.409,310.847,437.105,310.354C437.732,309.938,438.328,309.476,438.886,308.971C439.445,308.467,439.965,307.921,440.441,307.338C440.918,306.756,441.351,306.138,441.735,305.491C442.12,304.844,442.455,304.169,442.739,303.472C443.196,302.288,443.719,301.128,444.212,299.957C444.601,299.033,445.159,298.315,446.289,298.4C447.449,298.489,447.847,299.272,448.14,300.284ZM431.676,418.122L431.843,418.007C429.314,415.556,426.775,413.116,424.262,410.649C424.082,410.476,423.879,410.327,423.66,410.205C423.441,410.084,423.208,409.992,422.965,409.932C422.722,409.871,422.473,409.842,422.223,409.846C421.972,409.85,421.724,409.886,421.483,409.954C418.402,410.536,415.317,411.091,412.243,411.709C411.972,411.792,411.694,411.847,411.412,411.873C411.13,411.899,410.846,411.896,410.564,411.864C410.283,411.832,410.005,411.772,409.736,411.683C409.467,411.594,409.208,411.478,408.963,411.336C408.051,410.729,407.482,410.968,407.163,411.949C407.001,412.44,406.897,412.949,406.773,413.449C406.764,413.579,406.75,413.708,406.729,413.836C406.709,413.964,406.682,414.091,406.65,414.217C406.617,414.343,406.579,414.467,406.535,414.589C406.491,414.711,406.442,414.831,406.387,414.949C404.924,416.849,403.387,418.69,401.861,420.541C401.501,420.979,401.091,421.376,400.707,421.788C400.848,421.9,400.987,422.013,401.124,422.129C401.262,422.244,401.398,422.361,401.533,422.48C401.668,422.599,401.801,422.719,401.933,422.841C402.064,422.964,402.194,423.087,402.323,423.213C402.554,423.478,402.815,423.715,403.101,423.92C403.387,424.125,403.695,424.296,404.021,424.43C404.346,424.564,404.685,424.66,405.033,424.715C405.38,424.771,405.732,424.786,406.083,424.761C406.415,424.745,406.747,424.723,407.078,424.696C407.409,424.668,407.74,424.636,408.07,424.598C408.4,424.56,408.73,424.517,409.058,424.468C409.387,424.42,409.715,424.366,410.042,424.307C411.482,424.034,412.891,423.607,414.314,423.24C417.003,422.553,418.114,423.118,419.194,425.64C419.553,426.478,420.044,427.26,420.645,428.387C420.718,427.937,420.752,427.482,420.745,427.027C420.739,426.572,420.692,426.118,420.606,425.67C420.519,425.223,420.394,424.784,420.231,424.359C420.068,423.934,419.867,423.524,419.632,423.134C418.447,420.634,419.432,419.319,422.183,419.558C422.601,417.364,422.599,417.377,425.038,417.646C425.113,417.649,425.188,417.644,425.262,417.632C425.336,417.62,425.408,417.6,425.478,417.573C425.548,417.546,425.615,417.512,425.678,417.472C425.741,417.431,425.8,417.384,425.853,417.332C426.045,417.121,426.272,416.945,426.523,416.81C426.775,416.675,427.047,416.583,427.329,416.539C427.61,416.495,427.898,416.499,428.178,416.551C428.459,416.602,428.728,416.701,428.976,416.843C429.9,417.2,430.777,417.691,431.676,418.122ZM376.515,383.132C376.285,383.178,376.189,383.169,376.164,383.206C375.724,383.866,375.281,384.525,374.864,385.197C372.994,388.197,373.089,387.622,376.419,388.765C377.177,389.025,377.366,388.665,377.249,387.955C376.988,386.382,376.765,384.8,376.515,383.132Z" transform="translate(-339.98,-241.378)"/><path id="Trazado_38459" data-name="Trazado 38459" d="M380.8,286.694C380.98,281.206,382.066,276.878,385.327,273.32C387.088,271.4,388.695,269.32,390.597,267.551C393.004,265.316,394.559,262.546,396.254,259.818C399.615,254.407,402.242,248.618,405.136,242.967C408.077,237.226,412.474,232.624,417.071,228.215C417.541,227.812,418.032,227.433,418.541,227.081C419.051,226.729,419.578,226.404,420.122,226.108C420.665,225.811,421.224,225.543,421.795,225.305C422.367,225.066,422.951,224.858,423.544,224.681C424.343,224.385,425.151,224.113,425.966,223.866C426.782,223.619,427.605,223.397,428.434,223.201C429.263,223.005,430.099,222.834,430.938,222.689C431.778,222.544,432.622,222.425,433.469,222.332C434.132,222.245,434.803,222.224,435.471,222.271C436.138,222.319,436.799,222.433,437.444,222.613C438.088,222.793,438.713,223.038,439.308,223.343C439.904,223.649,440.467,224.013,440.989,224.432C441.823,225.097,442.758,225.632,443.603,226.288C443.721,226.379,443.836,226.475,443.947,226.574C444.058,226.674,444.165,226.778,444.269,226.885C444.372,226.993,444.472,227.104,444.567,227.219C444.662,227.334,444.753,227.452,444.84,227.574C444.952,227.701,445.037,227.85,445.091,228.011C445.144,228.172,445.165,228.342,445.152,228.511C445.138,228.68,445.091,228.845,445.013,228.996C444.935,229.146,444.828,229.28,444.697,229.388C444.574,229.504,444.431,229.596,444.275,229.659C444.119,229.723,443.952,229.757,443.783,229.759C443.615,229.762,443.447,229.733,443.289,229.674C443.131,229.615,442.985,229.527,442.859,229.415C441.667,228.558,440.459,227.715,439.3,226.823C438.877,226.467,438.414,226.163,437.919,225.917C437.425,225.67,436.903,225.483,436.365,225.359C435.826,225.235,435.275,225.176,434.723,225.181C434.17,225.187,433.621,225.258,433.085,225.393C430.301,226.079,427.498,226.704,424.748,227.504C420.867,228.633,418.18,231.416,415.441,234.228C410.296,239.51,407.141,245.96,403.895,252.437C403.3,253.616,402.689,254.786,402.061,255.947C401.433,257.109,400.789,258.261,400.128,259.404C399.468,260.547,398.791,261.681,398.098,262.805C397.406,263.929,396.697,265.043,395.973,266.147C394.502,268.405,392.273,270.168,390.404,272.167C387.211,275.579,384.581,279.202,384.004,284.12C383.912,284.931,383.893,285.749,383.948,286.564C384.003,287.379,384.131,288.187,384.33,288.979C384.53,289.771,384.8,290.543,385.138,291.286C385.476,292.03,385.88,292.741,386.346,293.412C386.795,294.156,387.268,294.886,387.766,295.599C388.263,296.312,388.783,297.008,389.327,297.687C389.87,298.365,390.436,299.025,391.023,299.667C391.61,300.308,392.218,300.929,392.846,301.53C393.141,301.847,393.428,302.173,393.706,302.506C393.984,302.838,394.254,303.179,394.513,303.526C394.773,303.873,395.023,304.227,395.264,304.588C395.505,304.949,395.736,305.316,395.957,305.689C396.093,305.84,396.197,306.017,396.263,306.208C396.329,306.4,396.356,306.604,396.342,306.806C396.329,307.009,396.274,307.206,396.183,307.387C396.092,307.569,395.965,307.73,395.81,307.861C395.178,308.445,394.31,308.284,393.498,307.489C393.485,307.478,393.473,307.467,393.461,307.455C393.449,307.444,393.437,307.432,393.426,307.419C393.414,307.407,393.403,307.395,393.393,307.382C393.382,307.369,393.372,307.355,393.362,307.342C390.693,303.074,386.475,300.067,383.973,295.633C382.244,292.564,380.577,289.553,380.8,286.694Z" transform="translate(-350.726,-222.264)"/><path id="Trazado_38460" data-name="Trazado 38460" d="M490.086,258.527C489.996,260.288,489.869,261.69,489.865,263.093C489.837,263.729,489.88,264.365,489.992,264.992C490.105,265.618,490.286,266.23,490.533,266.816C490.781,267.402,491.092,267.959,491.462,268.477C491.832,268.994,492.258,269.469,492.733,269.893C494.827,271.763,496.833,273.734,498.916,275.611C499.312,275.969,499.677,276.36,500.007,276.78C500.337,277.199,500.632,277.646,500.887,278.115C501.143,278.584,501.358,279.073,501.531,279.578C501.704,280.083,501.835,280.602,501.921,281.129C502.836,285.916,502.744,290.6,500.472,295.017C498.305,299.232,496.055,303.404,493.723,307.533C493.517,307.837,493.303,308.135,493.082,308.428C492.861,308.721,492.633,309.009,492.398,309.292C492.163,309.574,491.922,309.85,491.674,310.121C491.426,310.391,491.171,310.656,490.91,310.914C490.352,311.557,489.55,311.782,488.981,311.187C488.616,310.806,488.655,310,488.605,309.377C488.588,309.159,488.822,308.9,488.983,308.691C489.782,307.603,490.553,306.494,491.294,305.365C492.035,304.236,492.747,303.089,493.428,301.923C494.11,300.758,494.761,299.575,495.381,298.375C496.001,297.176,496.589,295.96,497.146,294.73C498.476,291.941,499.634,289.083,499.366,285.89C499.248,284.49,499.109,283.09,498.866,281.711C498.801,281.332,498.704,280.959,498.575,280.596C498.447,280.234,498.287,279.883,498.098,279.548C497.91,279.213,497.692,278.894,497.449,278.597C497.206,278.299,496.938,278.022,496.647,277.77C494.553,275.899,492.513,273.97,490.457,272.054C489.856,271.521,489.318,270.923,488.851,270.27C488.385,269.616,487.993,268.912,487.685,268.171C487.376,267.43,487.152,266.657,487.016,265.866C486.881,265.074,486.835,264.27,486.88,263.469C486.997,259.869,487.147,256.242,486.153,252.703C484.714,247.581,482.925,242.666,479.053,238.755C478.501,238.221,477.918,237.72,477.309,237.253C476.699,236.787,476.063,236.356,475.403,235.962C474.744,235.569,474.062,235.214,473.362,234.899C472.662,234.584,471.944,234.309,471.212,234.077C471.067,234.046,470.924,234.007,470.784,233.96C470.643,233.913,470.505,233.858,470.371,233.796C470.236,233.734,470.105,233.664,469.979,233.587C469.852,233.511,469.73,233.427,469.612,233.337C469.518,233.233,469.436,233.119,469.367,232.997C469.299,232.875,469.245,232.745,469.206,232.611C469.167,232.476,469.144,232.338,469.136,232.198C469.128,232.058,469.137,231.918,469.161,231.78C469.319,231.38,470.045,231.089,470.568,230.98C470.684,230.98,470.8,230.986,470.916,230.999C471.031,231.011,471.146,231.03,471.26,231.055C471.373,231.081,471.485,231.112,471.595,231.15C471.705,231.187,471.813,231.231,471.918,231.28C479.082,233.417,483.79,238.217,486.727,244.942C487.18,245.911,487.589,246.899,487.954,247.904C488.319,248.91,488.638,249.931,488.912,250.965C489.185,251.999,489.412,253.044,489.592,254.098C489.771,255.152,489.904,256.214,489.989,257.28C490.017,257.82,490.071,258.352,490.086,258.527Z" transform="translate(-373.989,-224.556)"/><path id="Trazado_38461" data-name="Trazado 38461" d="M403.352,299.778C403.077,299.726,402.802,299.67,402.528,299.61C402.254,299.55,401.981,299.487,401.709,299.419C401.436,299.352,401.165,299.281,400.895,299.207C400.624,299.132,400.355,299.054,400.087,298.972C399.889,298.921,399.704,298.828,399.544,298.7C399.385,298.572,399.255,298.411,399.162,298.228C399.07,298.046,399.018,297.845,399.01,297.641C399.001,297.437,399.036,297.233,399.113,297.043C399.181,296.852,399.287,296.677,399.423,296.527C399.559,296.377,399.724,296.255,399.907,296.169C400.091,296.083,400.29,296.034,400.492,296.025C400.694,296.016,400.897,296.048,401.087,296.117C401.414,296.182,401.736,296.277,402.058,296.366C402.556,296.511,403.071,296.591,403.589,296.606C404.107,296.62,404.626,296.569,405.131,296.453C405.637,296.337,406.125,296.157,406.585,295.917C407.045,295.678,407.473,295.38,407.858,295.033C408.91,294.183,409.909,293.267,410.847,292.293C411.785,291.318,412.662,290.286,413.472,289.202C414.282,288.119,415.024,286.985,415.693,285.81C416.362,284.634,416.957,283.417,417.475,282.167C419.13,278.124,422.105,274.987,425.256,272.122C426.565,270.932,428.556,270.485,430.268,269.759C430.359,269.718,430.454,269.687,430.552,269.667C430.65,269.646,430.75,269.636,430.849,269.637C430.949,269.638,431.049,269.649,431.146,269.671C431.244,269.693,431.338,269.725,431.429,269.767C431.561,269.85,431.686,269.944,431.804,270.046C431.922,270.149,432.031,270.26,432.132,270.38C432.232,270.499,432.323,270.626,432.404,270.759C432.486,270.892,432.556,271.032,432.616,271.176C432.658,271.341,432.662,271.514,432.628,271.681C432.594,271.848,432.522,272.005,432.419,272.141C432.316,272.277,432.183,272.387,432.031,272.464C431.879,272.542,431.711,272.583,431.541,272.587C427.476,273.112,425.076,275.903,423.054,279.028C421.247,281.821,419.682,284.776,418.095,287.705C417.538,288.676,416.936,289.621,416.291,290.536C415.646,291.451,414.958,292.336,414.231,293.187C413.503,294.038,412.736,294.855,411.933,295.634C411.129,296.413,410.289,297.155,409.416,297.856C407.7,299.314,405.583,299.644,403.352,299.778Z" transform="translate(-355.527,-234.741)"/><path id="Trazado_38462" data-name="Trazado 38462" d="M439.021,324.064C438.269,324.075,437.517,324.01,436.778,323.87C436.039,323.73,435.316,323.516,434.62,323.231C433.923,322.946,433.258,322.591,432.633,322.172C432.008,321.753,431.427,321.272,430.899,320.736C430.285,320.099,429.699,319.436,429.143,318.749C428.586,318.062,428.06,317.351,427.564,316.619C427.069,315.886,426.606,315.133,426.175,314.36C425.745,313.587,425.348,312.797,424.986,311.99C424.947,311.916,424.911,311.841,424.878,311.765C424.844,311.689,424.814,311.612,424.785,311.534C424.757,311.455,424.732,311.376,424.709,311.296C424.686,311.216,424.666,311.135,424.649,311.054C424.511,310.23,424.487,309.411,425.487,309.071C425.713,309.004,425.95,308.982,426.184,309.006C426.419,309.029,426.646,309.098,426.855,309.209C427.063,309.319,427.247,309.469,427.398,309.65C427.549,309.831,427.664,310.039,427.735,310.264C428.427,313.397,430.401,315.736,432.445,318.015C434.535,320.346,437.094,321.515,440.305,320.775C440.481,320.715,440.668,320.692,440.853,320.709C441.038,320.726,441.218,320.782,441.38,320.874C441.542,320.965,441.683,321.09,441.793,321.24C441.903,321.39,441.981,321.561,442.02,321.743C442.093,321.948,442.124,322.166,442.113,322.384C442.101,322.602,442.046,322.815,441.951,323.012C441.856,323.208,441.723,323.383,441.56,323.528C441.397,323.673,441.206,323.783,441,323.854C440.837,323.886,440.673,323.914,440.509,323.939C440.345,323.964,440.18,323.985,440.015,324.002C439.85,324.02,439.684,324.034,439.519,324.044C439.353,324.054,439.187,324.061,439.021,324.064Z" transform="translate(-362.262,-245.106)"/><path id="Trazado_38463" data-name="Trazado 38463" d="M445.079,274.5C443.479,274.542,442.704,274.043,442.665,273.2C442.618,272.176,443.265,271.8,444.177,271.719C445.739,271.575,446.494,270.485,446.992,269.188C447.757,267.188,448.352,265.124,449.211,263.17C449.366,262.875,449.527,262.584,449.694,262.296C449.861,262.009,450.034,261.724,450.213,261.444C450.392,261.163,450.577,260.887,450.768,260.614C450.959,260.341,451.155,260.073,451.357,259.808C451.386,259.767,451.417,259.727,451.449,259.689C451.481,259.651,451.515,259.613,451.55,259.578C451.586,259.542,451.622,259.508,451.661,259.476C451.699,259.443,451.738,259.412,451.779,259.383C451.907,259.249,452.06,259.141,452.229,259.065C452.398,258.988,452.58,258.945,452.765,258.937C452.951,258.929,453.136,258.956,453.311,259.017C453.486,259.079,453.647,259.173,453.787,259.295C453.939,259.406,454.064,259.549,454.156,259.714C454.247,259.878,454.302,260.06,454.317,260.248C454.332,260.436,454.306,260.624,454.241,260.801C454.176,260.978,454.074,261.138,453.942,261.272C451.642,263.8,451.042,267.09,449.762,270.082C449.604,270.409,449.43,270.728,449.242,271.039C449.053,271.349,448.85,271.651,448.632,271.942C448.415,272.233,448.184,272.514,447.94,272.783C447.696,273.052,447.439,273.309,447.171,273.554C447.015,273.667,446.853,273.772,446.686,273.868C446.52,273.965,446.348,274.053,446.173,274.133C445.997,274.212,445.818,274.282,445.635,274.344C445.452,274.405,445.267,274.457,445.079,274.5Z" transform="translate(-367.024,-231.92)"/><path id="Trazado_38464" data-name="Trazado 38464" d="M467.22,256.5C466.906,256.809,466.492,257.5,465.891,257.757C463.523,258.772,462.631,260.696,462.076,263.039C461.972,263.44,461.855,263.837,461.727,264.231C461.599,264.625,461.459,265.014,461.307,265.399C461.155,265.785,460.992,266.165,460.817,266.541C460.642,266.916,460.456,267.286,460.259,267.65C460.154,267.791,460.036,267.921,459.905,268.038C459.775,268.155,459.632,268.259,459.481,268.348C459.33,268.437,459.17,268.51,459.004,268.567C458.837,268.624,458.666,268.664,458.492,268.686C458.353,268.679,458.215,268.656,458.081,268.616C457.947,268.577,457.818,268.522,457.697,268.453C457.575,268.384,457.463,268.301,457.361,268.205C457.259,268.11,457.169,268.002,457.092,267.886C457.063,267.765,457.048,267.642,457.049,267.518C457.05,267.394,457.067,267.27,457.098,267.15C457.13,267.03,457.176,266.915,457.236,266.806C457.296,266.697,457.369,266.597,457.454,266.506C457.721,266.229,457.964,265.93,458.179,265.611C458.394,265.292,458.581,264.955,458.737,264.603C458.893,264.252,459.018,263.887,459.111,263.514C459.203,263.141,459.263,262.76,459.289,262.376C459.352,261.793,459.472,261.218,459.646,260.659C459.82,260.099,460.048,259.558,460.327,259.042C460.606,258.527,460.934,258.04,461.307,257.588C461.68,257.136,462.096,256.721,462.549,256.349C462.763,256.191,462.981,256.039,463.205,255.896C463.429,255.752,463.657,255.616,463.89,255.488C464.123,255.36,464.36,255.239,464.601,255.127C464.842,255.015,465.087,254.911,465.335,254.815C466.358,254.416,467.307,255.16,467.22,256.5Z" transform="translate(-370.807,-230.809)"/><path id="Trazado_38465" data-name="Trazado 38465" d="M445.628,293.7C445.845,292.873,446.028,292.034,446.287,291.221C446.772,289.71,447.328,288.221,447.804,286.709C448.074,285.852,448.514,285.22,449.484,285.387C449.686,285.412,449.88,285.483,450.051,285.593C450.223,285.703,450.367,285.85,450.474,286.024C450.581,286.198,450.647,286.393,450.668,286.596C450.689,286.798,450.664,287.003,450.595,287.195C450.317,288.487,449.936,289.759,449.545,291.024C449.351,291.656,449.009,292.241,448.788,292.867C448.501,293.68,448.588,294.259,449.65,294.426C449.796,294.442,449.941,294.471,450.082,294.513C450.223,294.555,450.36,294.609,450.492,294.675C450.624,294.741,450.749,294.818,450.867,294.907C450.985,294.995,451.095,295.093,451.195,295.201C451.28,295.33,451.351,295.467,451.407,295.611C451.463,295.755,451.504,295.904,451.528,296.056C451.553,296.208,451.562,296.363,451.555,296.517C451.547,296.671,451.523,296.824,451.484,296.973C451.357,297.322,450.536,297.559,450.014,297.581C449.865,297.569,449.717,297.552,449.57,297.529C449.423,297.506,449.277,297.477,449.131,297.443C448.986,297.409,448.842,297.37,448.7,297.325C448.558,297.281,448.418,297.231,448.279,297.176C446.262,296.618,445.729,295.885,445.628,293.7Z" transform="translate(-367.805,-238.881)"/><path id="Trazado_38466" data-name="Trazado 38466" d="M482.031,292.7C482.059,294.02,481.549,294.742,480.673,294.861C479.698,294.994,479.209,294.407,478.886,293.606C478.868,293.56,478.851,293.513,478.835,293.465C478.82,293.418,478.805,293.37,478.792,293.322C478.779,293.274,478.768,293.225,478.758,293.176C478.747,293.127,478.738,293.078,478.731,293.029C478.642,292.505,478.511,291.99,478.338,291.488C478.166,290.985,477.953,290.498,477.702,290.03C477.45,289.562,477.161,289.116,476.838,288.695C476.514,288.274,476.157,287.88,475.769,287.517C475.734,287.482,475.699,287.446,475.664,287.41C475.63,287.374,475.596,287.337,475.563,287.3C475.529,287.263,475.496,287.225,475.464,287.187C475.432,287.149,475.4,287.11,475.369,287.071C474.457,285.933,474.329,285.077,474.969,284.408C475.204,284.253,475.465,284.142,475.74,284.082C476.015,284.021,476.299,284.011,476.578,284.053C476.856,284.095,477.124,284.188,477.37,284.326C477.615,284.465,477.832,284.648,478.011,284.865C478.272,285.187,478.525,285.515,478.77,285.849C479.015,286.182,479.252,286.522,479.481,286.867C479.709,287.212,479.93,287.563,480.142,287.918C480.354,288.274,480.558,288.635,480.753,289C480.884,289.299,481.009,289.601,481.128,289.905C481.247,290.209,481.359,290.516,481.466,290.824C481.573,291.133,481.673,291.444,481.767,291.757C481.862,292.069,481.949,292.384,482.031,292.7Z" transform="translate(-375.428,-238.528)"/><path id="Trazado_38467" data-name="Trazado 38467" d="M475.225,276.192C474.985,276.492,474.75,277.075,474.355,277.221C474.231,277.249,474.105,277.265,473.978,277.269C473.851,277.274,473.724,277.267,473.598,277.249C473.473,277.231,473.349,277.201,473.229,277.161C473.108,277.12,472.992,277.069,472.881,277.007C472.8,276.95,472.725,276.886,472.657,276.815C472.588,276.745,472.526,276.668,472.472,276.586C472.418,276.503,472.371,276.416,472.333,276.325C472.295,276.235,472.266,276.14,472.245,276.044C472.092,275.552,471.908,275.07,471.696,274.601C471.483,274.132,471.242,273.676,470.974,273.237C470.706,272.797,470.411,272.374,470.09,271.971C469.77,271.567,469.425,271.184,469.058,270.823C469.013,270.774,468.967,270.723,468.927,270.673C468.001,269.485,467.933,268.473,468.74,267.884C469.562,267.284,470.304,267.64,471.289,268.912C472.712,270.747,474.353,272.438,474.873,274.818C474.957,275.2,475.068,275.583,475.225,276.192Z" transform="translate(-373.745,-234.205)"/><path id="Trazado_38468" data-name="Trazado 38468" d="M449.508,317.135C449.657,317.139,449.806,317.147,449.955,317.157C450.104,317.168,450.252,317.181,450.401,317.198C450.549,317.215,450.697,317.235,450.844,317.257C450.992,317.28,451.139,317.306,451.285,317.335C451.496,317.387,451.695,317.478,451.872,317.603C452.049,317.729,452.201,317.887,452.319,318.069C452.437,318.25,452.52,318.453,452.563,318.666C452.607,318.878,452.609,319.097,452.571,319.311C452.265,320.237,451.571,320.436,450.66,320.238C449.949,320.083,449.202,320.083,448.499,319.903C447.668,319.69,446.993,319.173,447.105,318.226C447.226,317.21,448.046,317.063,448.905,317.111C449.105,317.122,449.305,317.146,449.505,317.165Z" transform="translate(-368.191,-247.24)"/><path id="Trazado_38469" data-name="Trazado 38469" d="M462.727,291.807C462.716,291.54,462.764,291.274,462.867,291.027C462.971,290.78,463.127,290.559,463.325,290.38C463.523,290.2,463.758,290.067,464.014,289.988C464.269,289.909,464.539,289.888,464.804,289.925C465.055,289.934,465.3,289.997,465.524,290.11C465.748,290.223,465.945,290.383,466.101,290.579C466.258,290.775,466.369,291.003,466.429,291.247C466.489,291.49,466.496,291.744,466.448,291.99C466.455,292.24,466.413,292.489,466.324,292.722C466.236,292.956,466.102,293.17,465.932,293.353C465.761,293.535,465.556,293.683,465.329,293.787C465.102,293.891,464.857,293.95,464.607,293.96C464.342,293.943,464.083,293.874,463.844,293.756C463.606,293.639,463.394,293.475,463.219,293.275C463.044,293.075,462.911,292.842,462.826,292.59C462.742,292.338,462.708,292.072,462.727,291.807Z" transform="translate(-372.308,-240.082)"/><path id="Trazado_38470" data-name="Trazado 38470" d="M438.653,294.392C438.61,295.48,438.043,296.048,437.053,295.992C436.806,295.964,436.566,295.895,436.342,295.789C436.117,295.682,435.912,295.54,435.734,295.367C435.556,295.194,435.407,294.992,435.295,294.771C435.182,294.55,435.106,294.312,435.071,294.066C435.104,293.835,435.181,293.613,435.298,293.411C435.415,293.209,435.57,293.032,435.754,292.888C435.938,292.745,436.149,292.639,436.373,292.575C436.597,292.511,436.832,292.491,437.064,292.516C437.299,292.512,437.533,292.56,437.747,292.657C437.962,292.754,438.152,292.897,438.304,293.077C438.456,293.256,438.566,293.467,438.627,293.695C438.687,293.923,438.696,294.161,438.653,294.392Z" transform="translate(-365.025,-240.766)"/></g></svg>